<svg width="192" height="192" viewBox="0 0 192 192" fill="none" xmlns="http://www.w3.org/2000/svg">
<mask id="mask0_27_973" style="mask-type:alpha" maskUnits="userSpaceOnUse" x="0" y="0" width="192" height="192">
<rect width="192" height="192" fill="#D9D9D9"/>
</mask>
<g mask="url(#mask0_27_973)">
<mask id="path-2-inside-1_27_973" fill="white">
<path d="M11.5156 4.42188H16.748V0.421875H27.9805V4.42188H29.875V19.9082L30.0205 20.0547L42.0342 32.1338L42.8145 32.918L42.2949 33.8955C41.8934 34.6505 41.665 35.5139 41.665 36.4355L41.6719 36.7139C41.8159 39.5684 44.1614 41.8261 47.0176 41.8262C49.874 41.8261 52.2202 39.5682 52.3643 36.7139L52.3711 36.4355C52.3711 33.451 49.9663 31.045 47.0176 31.0449C46.1056 31.0449 45.2502 31.274 44.501 31.6768L43.5166 32.2061L42.7275 31.4131L31.3115 19.9346L30.875 19.4961V4.42188H33.2129V0.421875H44.4453V4.42188H49.6777V0.421875H60.9102V4.42188H66.1436V0.421875H77.376V4.42188H82.6084V0.421875H93.8408V4.42188H95.5098V29.9648L94.4395 30.2852C92.2304 30.9465 90.6143 33.007 90.6143 35.4512L90.6211 35.7295C90.7652 38.5839 93.1113 40.8418 95.9678 40.8418L96.2422 40.835C99.0638 40.6911 101.32 38.3427 101.32 35.4512C101.32 33.0307 99.7365 30.9858 97.5615 30.3037L96.5098 29.9736V4.42188H99.0732V0.421875H110.306V4.42188H115.538V0.421875H126.771V4.42188H132.003V0.421875H143.235V4.42188H148.468V0.421875H159.7V4.42188H161.061V21.4648L160.624 21.9033L150.797 31.7832L149.919 32.666L148.89 31.9658C148.035 31.3843 147.007 31.0449 145.896 31.0449C142.948 31.045 140.544 33.4507 140.544 36.4355L140.551 36.7139C140.695 39.5684 143.04 41.8261 145.896 41.8262C148.753 41.8261 151.099 39.5682 151.243 36.7139L151.25 36.4355C151.25 35.723 151.111 35.0439 150.861 34.4209L150.494 33.5049L151.19 32.8057L161.915 22.0234L162.061 21.877V4.42188H164.933V0.421875H176.165V4.42188H181.398V0.421875H192.515V11.5381H188.515V16.7705H192.515V28.0029H188.515V31.0137H172.123L171.977 31.1611H171.976L160.287 42.9121L159.584 43.6191L158.661 43.2451C158.123 43.027 157.54 42.8942 156.93 42.8643L156.666 42.8574C153.717 42.8574 151.313 45.2628 151.312 48.2471C151.313 51.2316 153.717 53.6377 156.666 53.6377L156.94 53.6309C159.762 53.4869 162.018 51.1384 162.019 48.2471C162.018 47.1245 161.68 46.0866 161.101 45.2266L160.412 44.2041L161.281 43.3311L172.099 32.4561L172.538 32.0137H188.515V33.2354H192.515V44.4678H188.515V49.7012H192.515V60.9336H188.515V66.166H192.515V77.3984H188.515V82.6309H192.515V93.8633H188.515V97.9795H161.167L160.983 96.6904C160.611 94.0738 158.375 92.0733 155.687 92.0732C152.738 92.0733 150.334 94.479 150.334 97.4639L150.341 97.7422C150.485 100.596 152.83 102.853 155.687 102.854C157.796 102.853 159.627 101.624 160.5 99.8252L160.91 98.9795H188.515V99.0957H192.515V110.328H188.515V115.561H192.515V126.793H188.515V132.026H192.515V143.259H188.515V148.491H192.515V159.724H188.515V159.96H169.601L169.161 159.518L159.88 150.187L158.917 149.219L159.79 148.169C160.57 147.232 161.04 146.029 161.04 144.711C161.04 141.726 158.635 139.32 155.687 139.32C152.738 139.32 150.334 141.726 150.334 144.711C150.334 147.696 152.738 150.102 155.687 150.102C156.178 150.102 156.655 150.033 157.111 149.906L157.957 149.672L158.576 150.294L169.038 160.812L169.039 160.813L169.185 160.96H188.515V164.956H192.515V176.188H188.515V181.421H192.515V192.537H181.398V188.537H176.165V192.537H164.933V188.537H162.061V171.08L161.915 170.935L148.994 157.942C149.263 157.297 149.413 156.59 149.413 155.848C149.413 152.842 146.977 150.405 143.972 150.405C140.966 150.405 138.529 152.842 138.529 155.848C138.529 158.853 140.966 161.29 143.972 161.29C145.861 161.29 147.524 160.326 148.5 158.864L160.624 171.055L161.061 171.493V188.537H159.7V192.537H148.468V188.537H143.235V192.537H132.003V188.537H126.771V192.537H115.538V188.537H110.306V192.537H99.0732V188.537H96.5098V163.969L97.5615 163.639C99.7365 162.957 101.32 160.912 101.32 158.491C101.32 155.6 99.064 153.252 96.2422 153.108L95.9678 153.102C93.0189 153.102 90.6144 155.507 90.6143 158.491C90.6143 160.935 92.2305 162.996 94.4395 163.657L95.5098 163.978V188.537H93.8408V192.537H82.6084V188.537H77.376V192.537H66.1436V188.537H60.9102V192.537H49.6777V188.537H44.4453V192.537H33.2129V188.537H31.8535V171.493L32.29 171.055L41.0508 162.245L42.127 161.162L43.1904 162.258C44.1656 163.262 45.5193 163.882 47.0176 163.882C49.9662 163.882 52.371 161.476 52.3711 158.491C52.3709 155.507 49.9664 153.102 47.0176 153.102C44.069 153.102 41.6652 155.507 41.665 158.491C41.665 158.765 41.6849 159.034 41.7236 159.296L41.834 160.04L41.3037 160.573L30.999 170.935L30.8535 171.08V188.537H27.9805V192.537H16.748V188.537H11.5156V192.537H0.399414V181.421H4.39941V176.188H0.399414V164.956H4.39941V161.944H20.793L20.9385 161.798L20.9395 161.797L32.3799 150.294L32.999 149.672L33.8447 149.906C34.3008 150.033 34.778 150.102 35.2695 150.102C38.2182 150.101 40.623 147.695 40.623 144.711C40.623 141.726 38.2182 139.32 35.2695 139.32C32.3211 139.32 29.917 141.726 29.917 144.711C29.917 146.029 30.386 147.234 31.165 148.17L32.0381 149.219L31.0752 150.187L20.8164 160.502L20.377 160.944H4.39941V159.724H0.399414V148.491H4.39941V143.259H0.399414V132.026H4.39941V126.793H0.399414V115.561H4.39941V110.328H0.399414V99.0957H4.39941V98.9795H31.0254L31.4355 99.8252C32.3084 101.624 34.1399 102.854 36.249 102.854L36.5234 102.847C39.254 102.707 41.4552 100.504 41.5947 97.7422L41.6016 97.4639C41.6016 94.5724 39.3451 92.224 36.5234 92.0801L36.249 92.0732C33.5603 92.0732 31.3235 94.074 30.9512 96.6904L30.7676 97.9795H4.39941V93.8633H0.399414V82.6309H4.39941V77.3984H0.399414V66.166H4.39941V60.9336H0.399414V49.7012H4.39941V44.4678H0.399414V33.2354H4.39941V31.0293H20.377L20.8164 31.4717L30.6543 41.3633L31.5234 42.2363L30.835 43.2588C30.2558 44.119 29.9171 45.1563 29.917 46.2783C29.9171 49.2629 32.3211 51.6688 35.2695 51.6689C38.2182 51.6689 40.623 49.2628 40.623 46.2783C40.6228 43.2941 38.2183 40.8887 35.2695 40.8887C34.5627 40.8887 33.8902 41.0271 33.2744 41.2764L32.3516 41.6504L31.6484 40.9434L20.9395 30.1768H20.9385L20.792 30.0293H4.39941V28.0029H0.399414V16.7705H4.39941V11.5381H0.399414V0.421875H11.5156V4.42188Z"/>
</mask>
<path d="M11.5156 4.42188H16.748V0.421875H27.9805V4.42188H29.875V19.9082L30.0205 20.0547L42.0342 32.1338L42.8145 32.918L42.2949 33.8955C41.8934 34.6505 41.665 35.5139 41.665 36.4355L41.6719 36.7139C41.8159 39.5684 44.1614 41.8261 47.0176 41.8262C49.874 41.8261 52.2202 39.5682 52.3643 36.7139L52.3711 36.4355C52.3711 33.451 49.9663 31.045 47.0176 31.0449C46.1056 31.0449 45.2502 31.274 44.501 31.6768L43.5166 32.2061L42.7275 31.4131L31.3115 19.9346L30.875 19.4961V4.42188H33.2129V0.421875H44.4453V4.42188H49.6777V0.421875H60.9102V4.42188H66.1436V0.421875H77.376V4.42188H82.6084V0.421875H93.8408V4.42188H95.5098V29.9648L94.4395 30.2852C92.2304 30.9465 90.6143 33.007 90.6143 35.4512L90.6211 35.7295C90.7652 38.5839 93.1113 40.8418 95.9678 40.8418L96.2422 40.835C99.0638 40.6911 101.32 38.3427 101.32 35.4512C101.32 33.0307 99.7365 30.9858 97.5615 30.3037L96.5098 29.9736V4.42188H99.0732V0.421875H110.306V4.42188H115.538V0.421875H126.771V4.42188H132.003V0.421875H143.235V4.42188H148.468V0.421875H159.7V4.42188H161.061V21.4648L160.624 21.9033L150.797 31.7832L149.919 32.666L148.89 31.9658C148.035 31.3843 147.007 31.0449 145.896 31.0449C142.948 31.045 140.544 33.4507 140.544 36.4355L140.551 36.7139C140.695 39.5684 143.04 41.8261 145.896 41.8262C148.753 41.8261 151.099 39.5682 151.243 36.7139L151.25 36.4355C151.25 35.723 151.111 35.0439 150.861 34.4209L150.494 33.5049L151.19 32.8057L161.915 22.0234L162.061 21.877V4.42188H164.933V0.421875H176.165V4.42188H181.398V0.421875H192.515V11.5381H188.515V16.7705H192.515V28.0029H188.515V31.0137H172.123L171.977 31.1611H171.976L160.287 42.9121L159.584 43.6191L158.661 43.2451C158.123 43.027 157.54 42.8942 156.93 42.8643L156.666 42.8574C153.717 42.8574 151.313 45.2628 151.312 48.2471C151.313 51.2316 153.717 53.6377 156.666 53.6377L156.94 53.6309C159.762 53.4869 162.018 51.1384 162.019 48.2471C162.018 47.1245 161.68 46.0866 161.101 45.2266L160.412 44.2041L161.281 43.3311L172.099 32.4561L172.538 32.0137H188.515V33.2354H192.515V44.4678H188.515V49.7012H192.515V60.9336H188.515V66.166H192.515V77.3984H188.515V82.6309H192.515V93.8633H188.515V97.9795H161.167L160.983 96.6904C160.611 94.0738 158.375 92.0733 155.687 92.0732C152.738 92.0733 150.334 94.479 150.334 97.4639L150.341 97.7422C150.485 100.596 152.83 102.853 155.687 102.854C157.796 102.853 159.627 101.624 160.5 99.8252L160.91 98.9795H188.515V99.0957H192.515V110.328H188.515V115.561H192.515V126.793H188.515V132.026H192.515V143.259H188.515V148.491H192.515V159.724H188.515V159.96H169.601L169.161 159.518L159.88 150.187L158.917 149.219L159.79 148.169C160.57 147.232 161.04 146.029 161.04 144.711C161.04 141.726 158.635 139.32 155.687 139.32C152.738 139.32 150.334 141.726 150.334 144.711C150.334 147.696 152.738 150.102 155.687 150.102C156.178 150.102 156.655 150.033 157.111 149.906L157.957 149.672L158.576 150.294L169.038 160.812L169.039 160.813L169.185 160.96H188.515V164.956H192.515V176.188H188.515V181.421H192.515V192.537H181.398V188.537H176.165V192.537H164.933V188.537H162.061V171.08L161.915 170.935L148.994 157.942C149.263 157.297 149.413 156.59 149.413 155.848C149.413 152.842 146.977 150.405 143.972 150.405C140.966 150.405 138.529 152.842 138.529 155.848C138.529 158.853 140.966 161.29 143.972 161.29C145.861 161.29 147.524 160.326 148.5 158.864L160.624 171.055L161.061 171.493V188.537H159.7V192.537H148.468V188.537H143.235V192.537H132.003V188.537H126.771V192.537H115.538V188.537H110.306V192.537H99.0732V188.537H96.5098V163.969L97.5615 163.639C99.7365 162.957 101.32 160.912 101.32 158.491C101.32 155.6 99.064 153.252 96.2422 153.108L95.9678 153.102C93.0189 153.102 90.6144 155.507 90.6143 158.491C90.6143 160.935 92.2305 162.996 94.4395 163.657L95.5098 163.978V188.537H93.8408V192.537H82.6084V188.537H77.376V192.537H66.1436V188.537H60.9102V192.537H49.6777V188.537H44.4453V192.537H33.2129V188.537H31.8535V171.493L32.29 171.055L41.0508 162.245L42.127 161.162L43.1904 162.258C44.1656 163.262 45.5193 163.882 47.0176 163.882C49.9662 163.882 52.371 161.476 52.3711 158.491C52.3709 155.507 49.9664 153.102 47.0176 153.102C44.069 153.102 41.6652 155.507 41.665 158.491C41.665 158.765 41.6849 159.034 41.7236 159.296L41.834 160.04L41.3037 160.573L30.999 170.935L30.8535 171.08V188.537H27.9805V192.537H16.748V188.537H11.5156V192.537H0.399414V181.421H4.39941V176.188H0.399414V164.956H4.39941V161.944H20.793L20.9385 161.798L20.9395 161.797L32.3799 150.294L32.999 149.672L33.8447 149.906C34.3008 150.033 34.778 150.102 35.2695 150.102C38.2182 150.101 40.623 147.695 40.623 144.711C40.623 141.726 38.2182 139.32 35.2695 139.32C32.3211 139.32 29.917 141.726 29.917 144.711C29.917 146.029 30.386 147.234 31.165 148.17L32.0381 149.219L31.0752 150.187L20.8164 160.502L20.377 160.944H4.39941V159.724H0.399414V148.491H4.39941V143.259H0.399414V132.026H4.39941V126.793H0.399414V115.561H4.39941V110.328H0.399414V99.0957H4.39941V98.9795H31.0254L31.4355 99.8252C32.3084 101.624 34.1399 102.854 36.249 102.854L36.5234 102.847C39.254 102.707 41.4552 100.504 41.5947 97.7422L41.6016 97.4639C41.6016 94.5724 39.3451 92.224 36.5234 92.0801L36.249 92.0732C33.5603 92.0732 31.3235 94.074 30.9512 96.6904L30.7676 97.9795H4.39941V93.8633H0.399414V82.6309H4.39941V77.3984H0.399414V66.166H4.39941V60.9336H0.399414V49.7012H4.39941V44.4678H0.399414V33.2354H4.39941V31.0293H20.377L20.8164 31.4717L30.6543 41.3633L31.5234 42.2363L30.835 43.2588C30.2558 44.119 29.9171 45.1563 29.917 46.2783C29.9171 49.2629 32.3211 51.6688 35.2695 51.6689C38.2182 51.6689 40.623 49.2628 40.623 46.2783C40.6228 43.2941 38.2183 40.8887 35.2695 40.8887C34.5627 40.8887 33.8902 41.0271 33.2744 41.2764L32.3516 41.6504L31.6484 40.9434L20.9395 30.1768H20.9385L20.792 30.0293H4.39941V28.0029H0.399414V16.7705H4.39941V11.5381H0.399414V0.421875H11.5156V4.42188Z" fill="#66D387"/>
<path d="M11.5156 4.42188H7.51562V8.42188H11.5156V4.42188ZM16.748 4.42188V8.42188H20.748V4.42188H16.748ZM16.748 0.421875V-3.57812H12.748V0.421875H16.748ZM27.9805 0.421875H31.9805V-3.57812H27.9805V0.421875ZM27.9805 4.42188H23.9805V8.42188H27.9805V4.42188ZM29.875 4.42188H33.875V0.421875H29.875V4.42188ZM29.875 19.9082H25.875V21.5572L27.0371 22.7272L29.875 19.9082ZM30.0205 20.0547L27.1826 22.8736L27.1844 22.8754L30.0205 20.0547ZM42.0342 32.1338L39.1981 34.9545L39.1987 34.9551L42.0342 32.1338ZM42.8145 32.918L46.3466 34.7952L47.7318 32.1889L45.6499 30.0966L42.8145 32.918ZM42.2949 33.8955L45.8266 35.7736L45.8271 35.7727L42.2949 33.8955ZM41.665 36.4355H37.665V36.4847L37.6662 36.5338L41.665 36.4355ZM41.6719 36.7139L37.6731 36.8121L37.6744 36.8638L37.677 36.9155L41.6719 36.7139ZM47.0176 41.8262L47.0175 45.8262H47.0177L47.0176 41.8262ZM52.3643 36.7139L56.3592 36.9155L56.3618 36.8638L56.3631 36.8121L52.3643 36.7139ZM52.3711 36.4355L56.3699 36.5338L56.3711 36.4847V36.4355H52.3711ZM47.0176 31.0449L47.0177 27.0449H47.0175L47.0176 31.0449ZM44.501 31.6768L42.6069 28.1536L42.6067 28.1538L44.501 31.6768ZM43.5166 32.2061L40.6812 35.0275L42.7845 37.1413L45.4109 35.7291L43.5166 32.2061ZM42.7275 31.4131L39.8914 34.2338L39.8921 34.2345L42.7275 31.4131ZM31.3115 19.9346L34.1477 17.1139L34.1463 17.1125L31.3115 19.9346ZM30.875 19.4961H26.875V21.1477L28.0403 22.3182L30.875 19.4961ZM30.875 4.42188V0.421875H26.875V4.42188H30.875ZM33.2129 4.42188V8.42188H37.2129V4.42188H33.2129ZM33.2129 0.421875V-3.57812H29.2129V0.421875H33.2129ZM44.4453 0.421875H48.4453V-3.57812H44.4453V0.421875ZM44.4453 4.42188H40.4453V8.42188H44.4453V4.42188ZM49.6777 4.42188V8.42188H53.6777V4.42188H49.6777ZM49.6777 0.421875V-3.57812H45.6777V0.421875H49.6777ZM60.9102 0.421875H64.9102V-3.57812H60.9102V0.421875ZM60.9102 4.42188H56.9102V8.42188H60.9102V4.42188ZM66.1436 4.42188V8.42188H70.1436V4.42188H66.1436ZM66.1436 0.421875V-3.57812H62.1436V0.421875H66.1436ZM77.376 0.421875H81.376V-3.57812H77.376V0.421875ZM77.376 4.42188H73.376V8.42188H77.376V4.42188ZM82.6084 4.42188V8.42188H86.6084V4.42188H82.6084ZM82.6084 0.421875V-3.57812H78.6084V0.421875H82.6084ZM93.8408 0.421875H97.8408V-3.57812H93.8408V0.421875ZM93.8408 4.42188H89.8408V8.42188H93.8408V4.42188ZM95.5098 4.42188H99.5098V0.421875H95.5098V4.42188ZM95.5098 29.9648L96.6566 33.7969L99.5098 32.943V29.9648H95.5098ZM94.4395 30.2852L93.2926 26.4531L93.2922 26.4532L94.4395 30.2852ZM90.6143 35.4512H86.6143V35.5003L86.6155 35.5494L90.6143 35.4512ZM90.6211 35.7295L86.6223 35.8277L86.6236 35.8794L86.6262 35.9311L90.6211 35.7295ZM95.9678 40.8418V44.8418H96.0176L96.0674 44.8406L95.9678 40.8418ZM96.2422 40.835L96.3418 44.8337L96.3939 44.8324L96.4459 44.8298L96.2422 40.835ZM101.32 35.4512L105.32 35.4513V35.4512H101.32ZM97.5615 30.3037L96.3638 34.1202L96.3646 34.1204L97.5615 30.3037ZM96.5098 29.9736H92.5098V32.9107L95.312 33.7901L96.5098 29.9736ZM96.5098 4.42188V0.421875H92.5098V4.42188H96.5098ZM99.0732 4.42188V8.42188H103.073V4.42188H99.0732ZM99.0732 0.421875V-3.57812H95.0732V0.421875H99.0732ZM110.306 0.421875H114.306V-3.57812H110.306V0.421875ZM110.306 4.42188H106.306V8.42188H110.306V4.42188ZM115.538 4.42188V8.42188H119.538V4.42188H115.538ZM115.538 0.421875V-3.57812H111.538V0.421875H115.538ZM126.771 0.421875H130.771V-3.57812H126.771V0.421875ZM126.771 4.42188H122.771V8.42188H126.771V4.42188ZM132.003 4.42188V8.42188H136.003V4.42188H132.003ZM132.003 0.421875V-3.57812H128.003V0.421875H132.003ZM143.235 0.421875H147.235V-3.57812H143.235V0.421875ZM143.235 4.42188H139.235V8.42188H143.235V4.42188ZM148.468 4.42188V8.42188H152.468V4.42188H148.468ZM148.468 0.421875V-3.57812H144.468V0.421875H148.468ZM159.7 0.421875H163.7V-3.57812H159.7V0.421875ZM159.7 4.42188H155.7V8.42188H159.7V4.42188ZM161.061 4.42188H165.061V0.421875H161.061V4.42188ZM161.061 21.4648L163.895 24.287L165.061 23.1165V21.4648H161.061ZM160.624 21.9033L157.789 19.0812L157.788 19.0825L160.624 21.9033ZM150.797 31.7832L147.961 28.9624L147.961 28.9626L150.797 31.7832ZM149.919 32.666L147.669 35.9733L150.414 37.8407L152.755 35.4866L149.919 32.666ZM148.89 31.9658L146.639 35.2726L146.64 35.2731L148.89 31.9658ZM145.896 31.0449L145.897 27.0449H145.896L145.896 31.0449ZM140.544 36.4355H136.544V36.4847L136.545 36.5338L140.544 36.4355ZM140.551 36.7139L136.552 36.8121L136.553 36.8638L136.556 36.9154L140.551 36.7139ZM145.896 41.8262L145.896 45.8262H145.897L145.896 41.8262ZM151.243 36.7139L155.238 36.9155L155.241 36.8638L155.242 36.8121L151.243 36.7139ZM151.25 36.4355L155.249 36.5338L155.25 36.4847V36.4355H151.25ZM150.861 34.4209L154.574 32.9334L154.574 32.9326L150.861 34.4209ZM150.494 33.5049L147.66 30.6824L145.801 32.5486L146.781 34.9932L150.494 33.5049ZM151.19 32.8057L154.025 35.6281L154.026 35.6265L151.19 32.8057ZM161.915 22.0234L164.751 24.8443L164.753 24.8424L161.915 22.0234ZM162.061 21.877L164.898 24.6959L166.061 23.526V21.877H162.061ZM162.061 4.42188V0.421875H158.061V4.42188H162.061ZM164.933 4.42188V8.42188H168.933V4.42188H164.933ZM164.933 0.421875V-3.57812H160.933V0.421875H164.933ZM176.165 0.421875H180.165V-3.57812H176.165V0.421875ZM176.165 4.42188H172.165V8.42188H176.165V4.42188ZM181.398 4.42188V8.42188H185.398V4.42188H181.398ZM181.398 0.421875V-3.57812H177.398V0.421875H181.398ZM192.515 0.421875H196.515V-3.57812H192.515V0.421875ZM192.515 11.5381V15.5381H196.515V11.5381H192.515ZM188.515 11.5381V7.53809H184.515V11.5381H188.515ZM188.515 16.7705H184.515V20.7705H188.515V16.7705ZM192.515 16.7705H196.515V12.7705H192.515V16.7705ZM192.515 28.0029V32.0029H196.515V28.0029H192.515ZM188.515 28.0029V24.0029H184.515V28.0029H188.515ZM188.515 31.0137V35.0137H192.515V31.0137H188.515ZM172.123 31.0137V27.0137H170.458L169.285 28.1947L172.123 31.0137ZM171.977 31.1611V35.1611H173.641L174.814 33.9801L171.977 31.1611ZM171.976 31.1611V27.1611H170.312L169.14 28.3403L171.976 31.1611ZM160.287 42.9121L157.451 40.0912L157.451 40.0915L160.287 42.9121ZM159.584 43.6191L158.082 47.3262L160.546 48.3249L162.42 46.4397L159.584 43.6191ZM158.661 43.2451L160.164 39.538L160.162 39.5375L158.661 43.2451ZM156.93 42.8643L157.125 38.8691L157.079 38.8668L157.033 38.8656L156.93 42.8643ZM156.666 42.8574L156.77 38.8588L156.718 38.8574H156.666V42.8574ZM151.312 48.2471L147.312 48.2469V48.2472L151.312 48.2471ZM156.666 53.6377V57.6377H156.716L156.766 57.6365L156.666 53.6377ZM156.94 53.6309L157.04 57.6296L157.092 57.6283L157.144 57.6257L156.94 53.6309ZM162.019 48.2471L166.019 48.2472V48.2469L162.019 48.2471ZM161.101 45.2266L157.783 47.4607L157.783 47.4607L161.101 45.2266ZM160.412 44.2041L157.577 41.382L155.258 43.7116L157.094 46.4382L160.412 44.2041ZM161.281 43.3311L164.116 46.1531L164.117 46.152L161.281 43.3311ZM172.099 32.4561L174.935 35.277L174.936 35.2751L172.099 32.4561ZM172.538 32.0137V28.0137H170.873L169.7 29.1947L172.538 32.0137ZM188.515 32.0137H192.515V28.0137H188.515V32.0137ZM188.515 33.2354H184.515V37.2354H188.515V33.2354ZM192.515 33.2354H196.515V29.2354H192.515V33.2354ZM192.515 44.4678V48.4678H196.515V44.4678H192.515ZM188.515 44.4678V40.4678H184.515V44.4678H188.515ZM188.515 49.7012H184.515V53.7012H188.515V49.7012ZM192.515 49.7012H196.515V45.7012H192.515V49.7012ZM192.515 60.9336V64.9336H196.515V60.9336H192.515ZM188.515 60.9336V56.9336H184.515V60.9336H188.515ZM188.515 66.166H184.515V70.166H188.515V66.166ZM192.515 66.166H196.515V62.166H192.515V66.166ZM192.515 77.3984V81.3984H196.515V77.3984H192.515ZM188.515 77.3984V73.3984H184.515V77.3984H188.515ZM188.515 82.6309H184.515V86.6309H188.515V82.6309ZM192.515 82.6309H196.515V78.6309H192.515V82.6309ZM192.515 93.8633V97.8633H196.515V93.8633H192.515ZM188.515 93.8633V89.8633H184.515V93.8633H188.515ZM188.515 97.9795V101.979H192.515V97.9795H188.515ZM161.167 97.9795L157.207 98.5435L157.696 101.979H161.167V97.9795ZM160.983 96.6904L157.023 97.254L157.023 97.2544L160.983 96.6904ZM155.687 92.0732L155.687 88.0732H155.686L155.687 92.0732ZM150.334 97.4639H146.334V97.513L146.335 97.5621L150.334 97.4639ZM150.341 97.7422L146.342 97.8404L146.343 97.8922L146.346 97.944L150.341 97.7422ZM155.687 102.854L155.686 106.854H155.687L155.687 102.854ZM160.5 99.8252L164.099 101.571L164.099 101.571L160.5 99.8252ZM160.91 98.9795V94.9795H158.405L157.311 97.234L160.91 98.9795ZM188.515 98.9795H192.515V94.9795H188.515V98.9795ZM188.515 99.0957H184.515V103.096H188.515V99.0957ZM192.515 99.0957H196.515V95.0957H192.515V99.0957ZM192.515 110.328V114.328H196.515V110.328H192.515ZM188.515 110.328V106.328H184.515V110.328H188.515ZM188.515 115.561H184.515V119.561H188.515V115.561ZM192.515 115.561H196.515V111.561H192.515V115.561ZM192.515 126.793V130.793H196.515V126.793H192.515ZM188.515 126.793V122.793H184.515V126.793H188.515ZM188.515 132.026H184.515V136.026H188.515V132.026ZM192.515 132.026H196.515V128.026H192.515V132.026ZM192.515 143.259V147.259H196.515V143.259H192.515ZM188.515 143.259V139.259H184.515V143.259H188.515ZM188.515 148.491H184.515V152.491H188.515V148.491ZM192.515 148.491H196.515V144.491H192.515V148.491ZM192.515 159.724V163.724H196.515V159.724H192.515ZM188.515 159.724V155.724H184.515V159.724H188.515ZM188.515 159.96V163.96H192.515V159.96H188.515ZM169.601 159.96L166.763 162.779L167.936 163.96H169.601V159.96ZM169.161 159.518L171.999 156.699L171.997 156.697L169.161 159.518ZM159.88 150.187L162.716 147.366L162.715 147.365L159.88 150.187ZM158.917 149.219L155.842 146.661L153.514 149.46L156.081 152.04L158.917 149.219ZM159.79 148.169L156.715 145.61L156.715 145.611L159.79 148.169ZM161.04 144.711L165.04 144.711V144.711L161.04 144.711ZM155.687 139.32L155.687 135.32H155.686L155.687 139.32ZM150.334 144.711L146.334 144.711V144.711L150.334 144.711ZM155.687 150.102L155.686 154.102H155.687L155.687 150.102ZM157.111 149.906L156.043 146.052L156.042 146.052L157.111 149.906ZM157.957 149.672L160.792 146.85L159.142 145.193L156.889 145.817L157.957 149.672ZM158.576 150.294L161.412 147.473L161.411 147.472L158.576 150.294ZM169.038 160.812L166.202 163.633L166.21 163.641L169.038 160.812ZM169.039 160.813L171.877 157.995L171.867 157.985L169.039 160.813ZM169.185 160.96L166.347 163.779L167.52 164.96H169.185V160.96ZM188.515 160.96H192.515V156.96H188.515V160.96ZM188.515 164.956H184.515V168.956H188.515V164.956ZM192.515 164.956H196.515V160.956H192.515V164.956ZM192.515 176.188V180.188H196.515V176.188H192.515ZM188.515 176.188V172.188H184.515V176.188H188.515ZM188.515 181.421H184.515V185.421H188.515V181.421ZM192.515 181.421H196.515V177.421H192.515V181.421ZM192.515 192.537V196.537H196.515V192.537H192.515ZM181.398 192.537H177.398V196.537H181.398V192.537ZM181.398 188.537H185.398V184.537H181.398V188.537ZM176.165 188.537V184.537H172.165V188.537H176.165ZM176.165 192.537V196.537H180.165V192.537H176.165ZM164.933 192.537H160.933V196.537H164.933V192.537ZM164.933 188.537H168.933V184.537H164.933V188.537ZM162.061 188.537H158.061V192.537H162.061V188.537ZM162.061 171.08H166.061V169.423L164.889 168.252L162.061 171.08ZM161.915 170.935L159.079 173.755L159.087 173.763L161.915 170.935ZM148.994 157.942L145.303 156.401L144.273 158.868L146.158 160.763L148.994 157.942ZM149.413 155.848L153.413 155.848V155.848H149.413ZM143.972 150.405L143.972 146.405H143.972V150.405ZM138.529 155.848H134.529V155.848L138.529 155.848ZM143.972 161.29V165.29H143.972L143.972 161.29ZM148.5 158.864L151.336 156.044L147.888 152.576L145.173 156.644L148.5 158.864ZM160.624 171.055L157.788 173.875L157.789 173.877L160.624 171.055ZM161.061 171.493H165.061V169.842L163.895 168.671L161.061 171.493ZM161.061 188.537V192.537H165.061V188.537H161.061ZM159.7 188.537V184.537H155.7V188.537H159.7ZM159.7 192.537V196.537H163.7V192.537H159.7ZM148.468 192.537H144.468V196.537H148.468V192.537ZM148.468 188.537H152.468V184.537H148.468V188.537ZM143.235 188.537V184.537H139.235V188.537H143.235ZM143.235 192.537V196.537H147.235V192.537H143.235ZM132.003 192.537H128.003V196.537H132.003V192.537ZM132.003 188.537H136.003V184.537H132.003V188.537ZM126.771 188.537V184.537H122.771V188.537H126.771ZM126.771 192.537V196.537H130.771V192.537H126.771ZM115.538 192.537H111.538V196.537H115.538V192.537ZM115.538 188.537H119.538V184.537H115.538V188.537ZM110.306 188.537V184.537H106.306V188.537H110.306ZM110.306 192.537V196.537H114.306V192.537H110.306ZM99.0732 192.537H95.0732V196.537H99.0732V192.537ZM99.0732 188.537H103.073V184.537H99.0732V188.537ZM96.5098 188.537H92.5098V192.537H96.5098V188.537ZM96.5098 163.969L95.312 160.152L92.5098 161.032V163.969H96.5098ZM97.5615 163.639L96.3646 159.822L96.3638 159.822L97.5615 163.639ZM101.32 158.491L105.32 158.491V158.491L101.32 158.491ZM96.2422 153.108L96.4458 149.114L96.3938 149.111L96.3418 149.11L96.2422 153.108ZM95.9678 153.102L96.0674 149.103L96.0176 149.102H95.9678V153.102ZM90.6143 158.491L86.6143 158.491V158.491L90.6143 158.491ZM94.4395 163.657L93.2922 167.489L93.2926 167.489L94.4395 163.657ZM95.5098 163.978H99.5098V160.999L96.6566 160.145L95.5098 163.978ZM95.5098 188.537V192.537H99.5098V188.537H95.5098ZM93.8408 188.537V184.537H89.8408V188.537H93.8408ZM93.8408 192.537V196.537H97.8408V192.537H93.8408ZM82.6084 192.537H78.6084V196.537H82.6084V192.537ZM82.6084 188.537H86.6084V184.537H82.6084V188.537ZM77.376 188.537V184.537H73.376V188.537H77.376ZM77.376 192.537V196.537H81.376V192.537H77.376ZM66.1436 192.537H62.1436V196.537H66.1436V192.537ZM66.1436 188.537H70.1436V184.537H66.1436V188.537ZM60.9102 188.537V184.537H56.9102V188.537H60.9102ZM60.9102 192.537V196.537H64.9102V192.537H60.9102ZM49.6777 192.537H45.6777V196.537H49.6777V192.537ZM49.6777 188.537H53.6777V184.537H49.6777V188.537ZM44.4453 188.537V184.537H40.4453V188.537H44.4453ZM44.4453 192.537V196.537H48.4453V192.537H44.4453ZM33.2129 192.537H29.2129V196.537H33.2129V192.537ZM33.2129 188.537H37.2129V184.537H33.2129V188.537ZM31.8535 188.537H27.8535V192.537H31.8535V188.537ZM31.8535 171.493L29.0188 168.671L27.8535 169.842V171.493H31.8535ZM32.29 171.055L35.1248 173.877L35.1263 173.875L32.29 171.055ZM41.0508 162.245L43.8871 165.066L43.8881 165.065L41.0508 162.245ZM42.127 161.162L44.9973 158.376L42.1605 155.453L39.2896 158.343L42.127 161.162ZM43.1904 162.258L40.3201 165.044L40.3204 165.044L43.1904 162.258ZM47.0176 163.882L47.0175 167.882H47.0177L47.0176 163.882ZM52.3711 158.491L56.3711 158.491V158.491L52.3711 158.491ZM47.0176 153.102L47.0177 149.102H47.0175L47.0176 153.102ZM41.665 158.491L37.665 158.491V158.491L41.665 158.491ZM41.7236 159.296L37.7669 159.882L37.7669 159.883L41.7236 159.296ZM41.834 160.04L44.6702 162.861L46.085 161.438L45.7907 159.453L41.834 160.04ZM41.3037 160.573L44.1399 163.394L44.1399 163.394L41.3037 160.573ZM30.999 170.935L33.8275 173.763L33.8352 173.755L30.999 170.935ZM30.8535 171.08L28.0251 168.252L26.8535 169.423V171.08H30.8535ZM30.8535 188.537V192.537H34.8535V188.537H30.8535ZM27.9805 188.537V184.537H23.9805V188.537H27.9805ZM27.9805 192.537V196.537H31.9805V192.537H27.9805ZM16.748 192.537H12.748V196.537H16.748V192.537ZM16.748 188.537H20.748V184.537H16.748V188.537ZM11.5156 188.537V184.537H7.51562V188.537H11.5156ZM11.5156 192.537V196.537H15.5156V192.537H11.5156ZM0.399414 192.537H-3.60059V196.537H0.399414V192.537ZM0.399414 181.421V177.421H-3.60059V181.421H0.399414ZM4.39941 181.421V185.421H8.39941V181.421H4.39941ZM4.39941 176.188H8.39941V172.188H4.39941V176.188ZM0.399414 176.188H-3.60059V180.188H0.399414V176.188ZM0.399414 164.956V160.956H-3.60059V164.956H0.399414ZM4.39941 164.956V168.956H8.39941V164.956H4.39941ZM4.39941 161.944V157.944H0.399414V161.944H4.39941ZM20.793 161.944V165.944H22.4577L23.6308 164.763L20.793 161.944ZM20.9385 161.798L18.11 158.969L18.1006 158.979L20.9385 161.798ZM20.9395 161.797L23.7679 164.625L23.7756 164.618L20.9395 161.797ZM32.3799 150.294L29.5448 147.472L29.5438 147.473L32.3799 150.294ZM32.999 149.672L34.0673 145.817L31.8137 145.193L30.1639 146.85L32.999 149.672ZM33.8447 149.906L34.9136 146.052L34.913 146.052L33.8447 149.906ZM35.2695 150.102L35.2694 154.102H35.2696L35.2695 150.102ZM40.623 144.711L44.623 144.711V144.711L40.623 144.711ZM35.2695 139.32L35.2696 135.32H35.2693L35.2695 139.32ZM29.917 144.711L25.917 144.711V144.711L29.917 144.711ZM31.165 148.17L28.0902 150.728L28.0907 150.729L31.165 148.17ZM32.0381 149.219L34.8737 152.04L37.4421 149.459L35.1124 146.66L32.0381 149.219ZM31.0752 150.187L28.2396 147.365L28.239 147.366L31.0752 150.187ZM20.8164 160.502L17.9802 157.681L17.9786 157.683L20.8164 160.502ZM20.377 160.944V164.944H22.0416L23.2148 163.763L20.377 160.944ZM4.39941 160.944H0.399414V164.944H4.39941V160.944ZM4.39941 159.724H8.39941V155.724H4.39941V159.724ZM0.399414 159.724H-3.60059V163.724H0.399414V159.724ZM0.399414 148.491V144.491H-3.60059V148.491H0.399414ZM4.39941 148.491V152.491H8.39941V148.491H4.39941ZM4.39941 143.259H8.39941V139.259H4.39941V143.259ZM0.399414 143.259H-3.60059V147.259H0.399414V143.259ZM0.399414 132.026V128.026H-3.60059V132.026H0.399414ZM4.39941 132.026V136.026H8.39941V132.026H4.39941ZM4.39941 126.793H8.39941V122.793H4.39941V126.793ZM0.399414 126.793H-3.60059V130.793H0.399414V126.793ZM0.399414 115.561V111.561H-3.60059V115.561H0.399414ZM4.39941 115.561V119.561H8.39941V115.561H4.39941ZM4.39941 110.328H8.39941V106.328H4.39941V110.328ZM0.399414 110.328H-3.60059V114.328H0.399414V110.328ZM0.399414 99.0957V95.0957H-3.60059V99.0957H0.399414ZM4.39941 99.0957V103.096H8.39941V99.0957H4.39941ZM4.39941 98.9795V94.9795H0.399414V98.9795H4.39941ZM31.0254 98.9795L34.6245 97.234L33.531 94.9795H31.0254V98.9795ZM31.4355 99.8252L27.8365 101.571L27.8367 101.571L31.4355 99.8252ZM36.249 102.854V106.854H36.2988L36.3486 106.852L36.249 102.854ZM36.5234 102.847L36.6231 106.845L36.6751 106.844L36.7272 106.841L36.5234 102.847ZM41.5947 97.7422L45.5896 97.944L45.5922 97.8922L45.5935 97.8404L41.5947 97.7422ZM41.6016 97.4639L45.6004 97.5621L45.6016 97.513V97.4639H41.6016ZM36.5234 92.0801L36.7272 88.0853L36.6752 88.0826L36.6231 88.0813L36.5234 92.0801ZM36.249 92.0732L36.3486 88.0745L36.2988 88.0732H36.249V92.0732ZM30.9512 96.6904L34.9112 97.2544L34.9113 97.2539L30.9512 96.6904ZM30.7676 97.9795V101.979H34.2382L34.7276 98.5435L30.7676 97.9795ZM4.39941 97.9795H0.399414V101.979H4.39941V97.9795ZM4.39941 93.8633H8.39941V89.8633H4.39941V93.8633ZM0.399414 93.8633H-3.60059V97.8633H0.399414V93.8633ZM0.399414 82.6309V78.6309H-3.60059V82.6309H0.399414ZM4.39941 82.6309V86.6309H8.39941V82.6309H4.39941ZM4.39941 77.3984H8.39941V73.3984H4.39941V77.3984ZM0.399414 77.3984H-3.60059V81.3984H0.399414V77.3984ZM0.399414 66.166V62.166H-3.60059V66.166H0.399414ZM4.39941 66.166V70.166H8.39941V66.166H4.39941ZM4.39941 60.9336H8.39941V56.9336H4.39941V60.9336ZM0.399414 60.9336H-3.60059V64.9336H0.399414V60.9336ZM0.399414 49.7012V45.7012H-3.60059V49.7012H0.399414ZM4.39941 49.7012V53.7012H8.39941V49.7012H4.39941ZM4.39941 44.4678H8.39941V40.4678H4.39941V44.4678ZM0.399414 44.4678H-3.60059V48.4678H0.399414V44.4678ZM0.399414 33.2354V29.2354H-3.60059V33.2354H0.399414ZM4.39941 33.2354V37.2354H8.39941V33.2354H4.39941ZM4.39941 31.0293V27.0293H0.399414V31.0293H4.39941ZM20.377 31.0293L23.2148 28.2103L22.0416 27.0293H20.377V31.0293ZM20.8164 31.4717L17.9786 34.2907L17.9803 34.2924L20.8164 31.4717ZM30.6543 41.3633L27.8182 44.184L27.8195 44.1854L30.6543 41.3633ZM31.5234 42.2363L34.8414 44.4705L36.6774 41.7438L34.3582 39.4142L31.5234 42.2363ZM30.835 43.2588L27.517 41.0247L27.5169 41.0249L30.835 43.2588ZM29.917 46.2783L25.917 46.278V46.2784L29.917 46.2783ZM35.2695 51.6689L35.2693 55.6689H35.2696L35.2695 51.6689ZM40.623 46.2783L44.623 46.2784V46.278L40.623 46.2783ZM35.2695 40.8887L35.2696 36.8887H35.2693L35.2695 40.8887ZM33.2744 41.2764L31.7734 37.5687L31.772 37.5693L33.2744 41.2764ZM32.3516 41.6504L29.5153 44.471L31.39 46.3561L33.854 45.3575L32.3516 41.6504ZM31.6484 40.9434L34.4847 38.1228L34.4844 38.1225L31.6484 40.9434ZM20.9395 30.1768L23.7755 27.3559L22.6026 26.1768H20.9395V30.1768ZM20.9385 30.1768L18.1007 32.9958L19.2738 34.1768H20.9385V30.1768ZM20.792 30.0293L23.6298 27.2103L22.4566 26.0293H20.792V30.0293ZM4.39941 30.0293H0.399414V34.0293H4.39941V30.0293ZM4.39941 28.0029H8.39941V24.0029H4.39941V28.0029ZM0.399414 28.0029H-3.60059V32.0029H0.399414V28.0029ZM0.399414 16.7705V12.7705H-3.60059V16.7705H0.399414ZM4.39941 16.7705V20.7705H8.39941V16.7705H4.39941ZM4.39941 11.5381H8.39941V7.53809H4.39941V11.5381ZM0.399414 11.5381H-3.60059V15.5381H0.399414V11.5381ZM0.399414 0.421875V-3.57812H-3.60059V0.421875H0.399414ZM11.5156 0.421875H15.5156V-3.57812H11.5156V0.421875ZM11.5156 4.42188V8.42188H16.748V4.42188V0.421875H11.5156V4.42188ZM16.748 4.42188H20.748V0.421875H16.748H12.748V4.42188H16.748ZM16.748 0.421875V4.42188H27.9805V0.421875V-3.57812H16.748V0.421875ZM27.9805 0.421875H23.9805V4.42188H27.9805H31.9805V0.421875H27.9805ZM27.9805 4.42188V8.42188H29.875V4.42188V0.421875H27.9805V4.42188ZM29.875 4.42188H25.875V19.9082H29.875H33.875V4.42188H29.875ZM29.875 19.9082L27.0371 22.7272L27.1826 22.8736L30.0205 20.0547L32.8584 17.2357L32.7129 17.0893L29.875 19.9082ZM30.0205 20.0547L27.1844 22.8754L39.1981 34.9545L42.0342 32.1338L44.8703 29.3131L32.8566 17.234L30.0205 20.0547ZM42.0342 32.1338L39.1987 34.9551L39.979 35.7393L42.8145 32.918L45.6499 30.0966L44.8697 29.3124L42.0342 32.1338ZM42.8145 32.918L39.2823 31.0407L38.7628 32.0183L42.2949 33.8955L45.8271 35.7727L46.3466 34.7952L42.8145 32.918ZM42.2949 33.8955L38.7632 32.0174C38.0611 33.3377 37.665 34.8445 37.665 36.4355H41.665H45.665C45.665 36.1834 45.7257 35.9633 45.8266 35.7736L42.2949 33.8955ZM41.665 36.4355L37.6662 36.5338L37.6731 36.8121L41.6719 36.7139L45.6707 36.6157L45.6638 36.3373L41.665 36.4355ZM41.6719 36.7139L37.677 36.9155C37.9269 41.8695 42.0022 45.826 47.0175 45.8262L47.0176 41.8262L47.0177 37.8262C46.3207 37.8262 45.7049 37.2673 45.6668 36.5123L41.6719 36.7139ZM47.0176 41.8262L47.0177 45.8262C52.0326 45.8261 56.1091 41.87 56.3592 36.9155L52.3643 36.7139L48.3693 36.5122C48.3313 37.2664 47.7153 37.8262 47.0175 37.8262L47.0176 41.8262ZM52.3643 36.7139L56.3631 36.8121L56.3699 36.5338L52.3711 36.4355L48.3723 36.3373L48.3655 36.6157L52.3643 36.7139ZM52.3711 36.4355H56.3711C56.3711 31.2604 52.1939 27.045 47.0177 27.0449L47.0176 31.0449L47.0175 35.0449C47.7386 35.0449 48.3711 35.6416 48.3711 36.4355H52.3711ZM47.0176 31.0449L47.0175 27.0449C45.4265 27.045 43.9223 27.4465 42.6069 28.1536L44.501 31.6768L46.3951 35.1999C46.5781 35.1015 46.7848 35.0449 47.0177 35.0449L47.0176 31.0449ZM44.501 31.6768L42.6067 28.1538L41.6223 28.683L43.5166 32.2061L45.4109 35.7291L46.3953 35.1998L44.501 31.6768ZM43.5166 32.2061L46.352 29.3846L45.5629 28.5917L42.7275 31.4131L39.8921 34.2345L40.6812 35.0275L43.5166 32.2061ZM42.7275 31.4131L45.5637 28.5924L34.1477 17.1139L31.3115 19.9346L28.4754 22.7553L39.8914 34.2338L42.7275 31.4131ZM31.3115 19.9346L34.1463 17.1125L33.7097 16.674L30.875 19.4961L28.0403 22.3182L28.4768 22.7567L31.3115 19.9346ZM30.875 19.4961H34.875V4.42188H30.875H26.875V19.4961H30.875ZM30.875 4.42188V8.42188H33.2129V4.42188V0.421875H30.875V4.42188ZM33.2129 4.42188H37.2129V0.421875H33.2129H29.2129V4.42188H33.2129ZM33.2129 0.421875V4.42188H44.4453V0.421875V-3.57812H33.2129V0.421875ZM44.4453 0.421875H40.4453V4.42188H44.4453H48.4453V0.421875H44.4453ZM44.4453 4.42188V8.42188H49.6777V4.42188V0.421875H44.4453V4.42188ZM49.6777 4.42188H53.6777V0.421875H49.6777H45.6777V4.42188H49.6777ZM49.6777 0.421875V4.42188H60.9102V0.421875V-3.57812H49.6777V0.421875ZM60.9102 0.421875H56.9102V4.42188H60.9102H64.9102V0.421875H60.9102ZM60.9102 4.42188V8.42188H66.1436V4.42188V0.421875H60.9102V4.42188ZM66.1436 4.42188H70.1436V0.421875H66.1436H62.1436V4.42188H66.1436ZM66.1436 0.421875V4.42188H77.376V0.421875V-3.57812H66.1436V0.421875ZM77.376 0.421875H73.376V4.42188H77.376H81.376V0.421875H77.376ZM77.376 4.42188V8.42188H82.6084V4.42188V0.421875H77.376V4.42188ZM82.6084 4.42188H86.6084V0.421875H82.6084H78.6084V4.42188H82.6084ZM82.6084 0.421875V4.42188H93.8408V0.421875V-3.57812H82.6084V0.421875ZM93.8408 0.421875H89.8408V4.42188H93.8408H97.8408V0.421875H93.8408ZM93.8408 4.42188V8.42188H95.5098V4.42188V0.421875H93.8408V4.42188ZM95.5098 4.42188H91.5098V29.9648H95.5098H99.5098V4.42188H95.5098ZM95.5098 29.9648L94.3629 26.1328L93.2926 26.4531L94.4395 30.2852L95.5863 34.1172L96.6566 33.7969L95.5098 29.9648ZM94.4395 30.2852L93.2922 26.4532C89.425 27.611 86.6143 31.2036 86.6143 35.4512H90.6143H94.6143C94.6143 34.8103 95.0359 34.282 95.5867 34.1171L94.4395 30.2852ZM90.6143 35.4512L86.6155 35.5494L86.6223 35.8277L90.6211 35.7295L94.6199 35.6313L94.6131 35.353L90.6143 35.4512ZM90.6211 35.7295L86.6262 35.9311C86.8762 40.8855 90.9526 44.8418 95.9678 44.8418V40.8418V36.8418C95.27 36.8418 94.6541 36.2822 94.616 35.5279L90.6211 35.7295ZM95.9678 40.8418L96.0674 44.8406L96.3418 44.8337L96.2422 40.835L96.1426 36.8362L95.8682 36.843L95.9678 40.8418ZM96.2422 40.835L96.4459 44.8298C101.402 44.5771 105.32 40.4659 105.32 35.4513L101.32 35.4512L97.3203 35.451C97.3203 36.2195 96.7261 36.8051 96.0385 36.8402L96.2422 40.835ZM101.32 35.4512H105.32C105.32 31.2468 102.567 27.6813 98.7584 26.487L97.5615 30.3037L96.3646 34.1204C96.906 34.2902 97.3203 34.8145 97.3203 35.4512H101.32ZM97.5615 30.3037L98.7593 26.4872L97.7075 26.1572L96.5098 29.9736L95.312 33.7901L96.3638 34.1202L97.5615 30.3037ZM96.5098 29.9736H100.51V4.42188H96.5098H92.5098V29.9736H96.5098ZM96.5098 4.42188V8.42188H99.0732V4.42188V0.421875H96.5098V4.42188ZM99.0732 4.42188H103.073V0.421875H99.0732H95.0732V4.42188H99.0732ZM99.0732 0.421875V4.42188H110.306V0.421875V-3.57812H99.0732V0.421875ZM110.306 0.421875H106.306V4.42188H110.306H114.306V0.421875H110.306ZM110.306 4.42188V8.42188H115.538V4.42188V0.421875H110.306V4.42188ZM115.538 4.42188H119.538V0.421875H115.538H111.538V4.42188H115.538ZM115.538 0.421875V4.42188H126.771V0.421875V-3.57812H115.538V0.421875ZM126.771 0.421875H122.771V4.42188H126.771H130.771V0.421875H126.771ZM126.771 4.42188V8.42188H132.003V4.42188V0.421875H126.771V4.42188ZM132.003 4.42188H136.003V0.421875H132.003H128.003V4.42188H132.003ZM132.003 0.421875V4.42188H143.235V0.421875V-3.57812H132.003V0.421875ZM143.235 0.421875H139.235V4.42188H143.235H147.235V0.421875H143.235ZM143.235 4.42188V8.42188H148.468V4.42188V0.421875H143.235V4.42188ZM148.468 4.42188H152.468V0.421875H148.468H144.468V4.42188H148.468ZM148.468 0.421875V4.42188H159.7V0.421875V-3.57812H148.468V0.421875ZM159.7 0.421875H155.7V4.42188H159.7H163.7V0.421875H159.7ZM159.7 4.42188V8.42188H161.061V4.42188V0.421875H159.7V4.42188ZM161.061 4.42188H157.061V21.4648H161.061H165.061V4.42188H161.061ZM161.061 21.4648L158.226 18.6427L157.789 19.0812L160.624 21.9033L163.459 24.7254L163.895 24.287L161.061 21.4648ZM160.624 21.9033L157.788 19.0825L147.961 28.9624L150.797 31.7832L153.633 34.604L163.46 24.7242L160.624 21.9033ZM150.797 31.7832L147.961 28.9626L147.083 29.8454L149.919 32.666L152.755 35.4866L153.633 34.6038L150.797 31.7832ZM149.919 32.666L152.169 29.3587L151.139 28.6585L148.89 31.9658L146.64 35.2731L147.669 35.9733L149.919 32.666ZM148.89 31.9658L151.14 28.6591C149.645 27.6413 147.837 27.045 145.897 27.0449L145.896 31.0449L145.896 35.0449C146.177 35.0449 146.426 35.1273 146.639 35.2726L148.89 31.9658ZM145.896 31.0449L145.896 27.0449C140.72 27.045 136.544 31.2609 136.544 36.4355H140.544H144.544C144.544 35.6406 145.176 35.0449 145.897 35.0449L145.896 31.0449ZM140.544 36.4355L136.545 36.5338L136.552 36.8121L140.551 36.7139L144.55 36.6157L144.543 36.3373L140.544 36.4355ZM140.551 36.7139L136.556 36.9154C136.806 41.8695 140.881 45.8261 145.896 45.8262L145.896 41.8262L145.897 37.8262C145.2 37.8262 144.584 37.2673 144.546 36.5123L140.551 36.7139ZM145.896 41.8262L145.897 45.8262C150.911 45.8261 154.988 41.87 155.238 36.9155L151.243 36.7139L147.248 36.5122C147.21 37.2664 146.594 37.8262 145.896 37.8262L145.896 41.8262ZM151.243 36.7139L155.242 36.8121L155.249 36.5338L151.25 36.4355L147.251 36.3373L147.244 36.6157L151.243 36.7139ZM151.25 36.4355H155.25C155.25 35.1974 155.007 34.0144 154.574 32.9334L150.861 34.4209L147.148 35.9084C147.214 36.0734 147.25 36.2485 147.25 36.4355H151.25ZM150.861 34.4209L154.574 32.9326L154.207 32.0166L150.494 33.5049L146.781 34.9932L147.149 35.9092L150.861 34.4209ZM150.494 33.5049L153.329 36.3274L154.025 35.6281L151.19 32.8057L148.356 29.9832L147.66 30.6824L150.494 33.5049ZM151.19 32.8057L154.026 35.6265L164.751 24.8443L161.915 22.0234L159.079 19.2026L148.354 29.9848L151.19 32.8057ZM161.915 22.0234L164.753 24.8424L164.898 24.6959L162.061 21.877L159.223 19.058L159.077 19.2045L161.915 22.0234ZM162.061 21.877H166.061V4.42188H162.061H158.061V21.877H162.061ZM162.061 4.42188V8.42188H164.933V4.42188V0.421875H162.061V4.42188ZM164.933 4.42188H168.933V0.421875H164.933H160.933V4.42188H164.933ZM164.933 0.421875V4.42188H176.165V0.421875V-3.57812H164.933V0.421875ZM176.165 0.421875H172.165V4.42188H176.165H180.165V0.421875H176.165ZM176.165 4.42188V8.42188H181.398V4.42188V0.421875H176.165V4.42188ZM181.398 4.42188H185.398V0.421875H181.398H177.398V4.42188H181.398ZM181.398 0.421875V4.42188H192.515V0.421875V-3.57812H181.398V0.421875ZM192.515 0.421875H188.515V11.5381H192.515H196.515V0.421875H192.515ZM192.515 11.5381V7.53809H188.515V11.5381V15.5381H192.515V11.5381ZM188.515 11.5381H184.515V16.7705H188.515H192.515V11.5381H188.515ZM188.515 16.7705V20.7705H192.515V16.7705V12.7705H188.515V16.7705ZM192.515 16.7705H188.515V28.0029H192.515H196.515V16.7705H192.515ZM192.515 28.0029V24.0029H188.515V28.0029V32.0029H192.515V28.0029ZM188.515 28.0029H184.515V31.0137H188.515H192.515V28.0029H188.515ZM188.515 31.0137V27.0137H172.123V31.0137V35.0137H188.515V31.0137ZM172.123 31.0137L169.285 28.1947L169.139 28.3421L171.977 31.1611L174.814 33.9801L174.961 33.8327L172.123 31.0137ZM171.977 31.1611V27.1611H171.976V31.1611V35.1611H171.977V31.1611ZM171.976 31.1611L169.14 28.3403L157.451 40.0912L160.287 42.9121L163.123 45.733L174.812 33.982L171.976 31.1611ZM160.287 42.9121L157.451 40.0915L156.748 40.7986L159.584 43.6191L162.42 46.4397L163.123 45.7327L160.287 42.9121ZM159.584 43.6191L161.086 39.912L160.164 39.538L158.661 43.2451L157.159 46.9522L158.082 47.3262L159.584 43.6191ZM158.661 43.2451L160.162 39.5375C159.216 39.1544 158.193 38.9214 157.125 38.8691L156.93 42.8643L156.734 46.8595C156.887 46.867 157.029 46.8997 157.16 46.9527L158.661 43.2451ZM156.93 42.8643L157.033 38.8656L156.77 38.8588L156.666 42.8574L156.562 46.8561L156.826 46.8629L156.93 42.8643ZM156.666 42.8574V38.8574C151.49 38.8574 147.313 43.0717 147.312 48.2469L151.312 48.2471L155.312 48.2473C155.313 47.4539 155.944 46.8574 156.666 46.8574V42.8574ZM151.312 48.2471L147.312 48.2472C147.313 53.422 151.489 57.6377 156.666 57.6377V53.6377V49.6377C155.945 49.6377 155.313 49.0412 155.312 48.247L151.312 48.2471ZM156.666 53.6377L156.766 57.6365L157.04 57.6296L156.94 53.6309L156.841 49.6321L156.566 49.6389L156.666 53.6377ZM156.94 53.6309L157.144 57.6257C162.1 57.3728 166.018 53.2617 166.019 48.2472L162.019 48.2471L158.019 48.247C158.019 49.0151 157.424 49.601 156.737 49.6361L156.94 53.6309ZM162.019 48.2471L166.019 48.2469C166.018 46.3064 165.43 44.4942 164.419 42.9924L161.101 45.2266L157.783 47.4607C157.93 47.6791 158.019 47.9426 158.019 48.2473L162.019 48.2471ZM161.101 45.2266L164.419 42.9924L163.73 41.97L160.412 44.2041L157.094 46.4382L157.783 47.4607L161.101 45.2266ZM160.412 44.2041L163.247 47.0262L164.116 46.1531L161.281 43.3311L158.446 40.509L157.577 41.382L160.412 44.2041ZM161.281 43.3311L164.117 46.152L174.935 35.277L172.099 32.4561L169.263 29.6352L158.445 40.5102L161.281 43.3311ZM172.099 32.4561L174.936 35.2751L175.376 34.8327L172.538 32.0137L169.7 29.1947L169.261 29.637L172.099 32.4561ZM172.538 32.0137V36.0137H188.515V32.0137V28.0137H172.538V32.0137ZM188.515 32.0137H184.515V33.2354H188.515H192.515V32.0137H188.515ZM188.515 33.2354V37.2354H192.515V33.2354V29.2354H188.515V33.2354ZM192.515 33.2354H188.515V44.4678H192.515H196.515V33.2354H192.515ZM192.515 44.4678V40.4678H188.515V44.4678V48.4678H192.515V44.4678ZM188.515 44.4678H184.515V49.7012H188.515H192.515V44.4678H188.515ZM188.515 49.7012V53.7012H192.515V49.7012V45.7012H188.515V49.7012ZM192.515 49.7012H188.515V60.9336H192.515H196.515V49.7012H192.515ZM192.515 60.9336V56.9336H188.515V60.9336V64.9336H192.515V60.9336ZM188.515 60.9336H184.515V66.166H188.515H192.515V60.9336H188.515ZM188.515 66.166V70.166H192.515V66.166V62.166H188.515V66.166ZM192.515 66.166H188.515V77.3984H192.515H196.515V66.166H192.515ZM192.515 77.3984V73.3984H188.515V77.3984V81.3984H192.515V77.3984ZM188.515 77.3984H184.515V82.6309H188.515H192.515V77.3984H188.515ZM188.515 82.6309V86.6309H192.515V82.6309V78.6309H188.515V82.6309ZM192.515 82.6309H188.515V93.8633H192.515H196.515V82.6309H192.515ZM192.515 93.8633V89.8633H188.515V93.8633V97.8633H192.515V93.8633ZM188.515 93.8633H184.515V97.9795H188.515H192.515V93.8633H188.515ZM188.515 97.9795V93.9795H161.167V97.9795V101.979H188.515V97.9795ZM161.167 97.9795L165.127 97.4155L164.943 96.1264L160.983 96.6904L157.023 97.2544L157.207 98.5435L161.167 97.9795ZM160.983 96.6904L164.943 96.1269C164.297 91.5813 160.409 88.0733 155.687 88.0732L155.687 92.0732L155.686 96.0732C156.341 96.0733 156.925 96.5662 157.023 97.254L160.983 96.6904ZM155.687 92.0732L155.686 88.0732C150.51 88.0733 146.334 92.2892 146.334 97.4639H150.334H154.334C154.334 96.6689 154.966 96.0732 155.687 96.0732L155.687 92.0732ZM150.334 97.4639L146.335 97.5621L146.342 97.8404L150.341 97.7422L154.34 97.644L154.333 97.3657L150.334 97.4639ZM150.341 97.7422L146.346 97.944C146.596 102.898 150.672 106.853 155.686 106.854L155.687 102.854L155.687 98.8535C154.989 98.8535 154.374 98.2947 154.336 97.5404L150.341 97.7422ZM155.687 102.854L155.687 106.854C159.392 106.853 162.586 104.691 164.099 101.571L160.5 99.8252L156.901 98.0794C156.669 98.5582 156.2 98.8535 155.686 98.8535L155.687 102.854ZM160.5 99.8252L164.099 101.571L164.509 100.725L160.91 98.9795L157.311 97.234L156.901 98.0797L160.5 99.8252ZM160.91 98.9795V102.979H188.515V98.9795V94.9795H160.91V98.9795ZM188.515 98.9795H184.515V99.0957H188.515H192.515V98.9795H188.515ZM188.515 99.0957V103.096H192.515V99.0957V95.0957H188.515V99.0957ZM192.515 99.0957H188.515V110.328H192.515H196.515V99.0957H192.515ZM192.515 110.328V106.328H188.515V110.328V114.328H192.515V110.328ZM188.515 110.328H184.515V115.561H188.515H192.515V110.328H188.515ZM188.515 115.561V119.561H192.515V115.561V111.561H188.515V115.561ZM192.515 115.561H188.515V126.793H192.515H196.515V115.561H192.515ZM192.515 126.793V122.793H188.515V126.793V130.793H192.515V126.793ZM188.515 126.793H184.515V132.026H188.515H192.515V126.793H188.515ZM188.515 132.026V136.026H192.515V132.026V128.026H188.515V132.026ZM192.515 132.026H188.515V143.259H192.515H196.515V132.026H192.515ZM192.515 143.259V139.259H188.515V143.259V147.259H192.515V143.259ZM188.515 143.259H184.515V148.491H188.515H192.515V143.259H188.515ZM188.515 148.491V152.491H192.515V148.491V144.491H188.515V148.491ZM192.515 148.491H188.515V159.724H192.515H196.515V148.491H192.515ZM192.515 159.724V155.724H188.515V159.724V163.724H192.515V159.724ZM188.515 159.724H184.515V159.96H188.515H192.515V159.724H188.515ZM188.515 159.96V155.96H169.601V159.96V163.96H188.515V159.96ZM169.601 159.96L172.438 157.141L171.999 156.699L169.161 159.518L166.323 162.337L166.763 162.779L169.601 159.96ZM169.161 159.518L171.997 156.697L162.716 147.366L159.88 150.187L157.044 153.007L166.325 162.338L169.161 159.518ZM159.88 150.187L162.715 147.365L161.753 146.397L158.917 149.219L156.081 152.04L157.044 153.008L159.88 150.187ZM158.917 149.219L161.992 151.776L162.866 150.727L159.79 148.169L156.715 145.611L155.842 146.661L158.917 149.219ZM159.79 148.169L162.865 150.728C164.219 149.1 165.04 147 165.04 144.711L161.04 144.711L157.04 144.711C157.04 145.057 156.921 145.363 156.715 145.61L159.79 148.169ZM161.04 144.711L165.04 144.711C165.04 139.536 160.863 135.32 155.687 135.32L155.687 139.32L155.686 143.32C156.408 143.32 157.04 143.917 157.04 144.711L161.04 144.711ZM155.687 139.32L155.686 135.32C150.51 135.32 146.334 139.536 146.334 144.711L150.334 144.711L154.334 144.711C154.334 143.916 154.967 143.32 155.687 143.32L155.687 139.32ZM150.334 144.711L146.334 144.711C146.334 149.885 150.51 154.102 155.686 154.102L155.687 150.102L155.687 146.102C154.967 146.102 154.334 145.506 154.334 144.711L150.334 144.711ZM155.687 150.102L155.687 154.102C156.554 154.102 157.39 153.98 158.18 153.761L157.111 149.906L156.042 146.052C155.92 146.086 155.802 146.102 155.686 146.102L155.687 150.102ZM157.111 149.906L158.18 153.761L159.025 153.527L157.957 149.672L156.889 145.817L156.043 146.052L157.111 149.906ZM157.957 149.672L155.122 152.494L155.741 153.116L158.576 150.294L161.411 147.472L160.792 146.85L157.957 149.672ZM158.576 150.294L155.74 153.115L166.202 163.633L169.038 160.812L171.874 157.992L161.412 147.473L158.576 150.294ZM169.038 160.812L166.21 163.641L166.211 163.642L169.039 160.813L171.867 157.985L171.867 157.984L169.038 160.812ZM169.039 160.813L166.201 163.632L166.347 163.779L169.185 160.96L172.022 158.141L171.877 157.995L169.039 160.813ZM169.185 160.96V164.96H188.515V160.96V156.96H169.185V160.96ZM188.515 160.96H184.515V164.956H188.515H192.515V160.96H188.515ZM188.515 164.956V168.956H192.515V164.956V160.956H188.515V164.956ZM192.515 164.956H188.515V176.188H192.515H196.515V164.956H192.515ZM192.515 176.188V172.188H188.515V176.188V180.188H192.515V176.188ZM188.515 176.188H184.515V181.421H188.515H192.515V176.188H188.515ZM188.515 181.421V185.421H192.515V181.421V177.421H188.515V181.421ZM192.515 181.421H188.515V192.537H192.515H196.515V181.421H192.515ZM192.515 192.537V188.537H181.398V192.537V196.537H192.515V192.537ZM181.398 192.537H185.398V188.537H181.398H177.398V192.537H181.398ZM181.398 188.537V184.537H176.165V188.537V192.537H181.398V188.537ZM176.165 188.537H172.165V192.537H176.165H180.165V188.537H176.165ZM176.165 192.537V188.537H164.933V192.537V196.537H176.165V192.537ZM164.933 192.537H168.933V188.537H164.933H160.933V192.537H164.933ZM164.933 188.537V184.537H162.061V188.537V192.537H164.933V188.537ZM162.061 188.537H166.061V171.08H162.061H158.061V188.537H162.061ZM162.061 171.08L164.889 168.252L164.743 168.106L161.915 170.935L159.087 173.763L159.232 173.909L162.061 171.08ZM161.915 170.935L164.751 168.114L151.83 155.122L148.994 157.942L146.158 160.763L159.079 173.755L161.915 170.935ZM148.994 157.942L152.685 159.484C153.153 158.363 153.413 157.133 153.413 155.848L149.413 155.848L145.413 155.848C145.413 156.048 145.374 156.232 145.303 156.401L148.994 157.942ZM149.413 155.848H153.413C153.413 150.634 149.187 146.405 143.972 146.405L143.972 150.405L143.972 154.405C144.767 154.405 145.413 155.051 145.413 155.848H149.413ZM143.972 150.405V146.405C138.757 146.405 134.529 150.633 134.529 155.848H138.529H142.529C142.529 155.051 143.175 154.405 143.972 154.405V150.405ZM138.529 155.848L134.529 155.848C134.529 161.062 138.757 165.29 143.972 165.29V161.29V157.29C143.175 157.29 142.529 156.644 142.529 155.848L138.529 155.848ZM143.972 161.29L143.972 165.29C147.256 165.29 150.142 163.609 151.827 161.085L148.5 158.864L145.173 156.644C144.906 157.043 144.466 157.29 143.972 157.29L143.972 161.29ZM148.5 158.864L145.664 161.685L157.788 173.875L160.624 171.055L163.46 168.234L151.336 156.044L148.5 158.864ZM160.624 171.055L157.789 173.877L158.226 174.315L161.061 171.493L163.895 168.671L163.459 168.233L160.624 171.055ZM161.061 171.493H157.061V188.537H161.061H165.061V171.493H161.061ZM161.061 188.537V184.537H159.7V188.537V192.537H161.061V188.537ZM159.7 188.537H155.7V192.537H159.7H163.7V188.537H159.7ZM159.7 192.537V188.537H148.468V192.537V196.537H159.7V192.537ZM148.468 192.537H152.468V188.537H148.468H144.468V192.537H148.468ZM148.468 188.537V184.537H143.235V188.537V192.537H148.468V188.537ZM143.235 188.537H139.235V192.537H143.235H147.235V188.537H143.235ZM143.235 192.537V188.537H132.003V192.537V196.537H143.235V192.537ZM132.003 192.537H136.003V188.537H132.003H128.003V192.537H132.003ZM132.003 188.537V184.537H126.771V188.537V192.537H132.003V188.537ZM126.771 188.537H122.771V192.537H126.771H130.771V188.537H126.771ZM126.771 192.537V188.537H115.538V192.537V196.537H126.771V192.537ZM115.538 192.537H119.538V188.537H115.538H111.538V192.537H115.538ZM115.538 188.537V184.537H110.306V188.537V192.537H115.538V188.537ZM110.306 188.537H106.306V192.537H110.306H114.306V188.537H110.306ZM110.306 192.537V188.537H99.0732V192.537V196.537H110.306V192.537ZM99.0732 192.537H103.073V188.537H99.0732H95.0732V192.537H99.0732ZM99.0732 188.537V184.537H96.5098V188.537V192.537H99.0732V188.537ZM96.5098 188.537H100.51V163.969H96.5098H92.5098V188.537H96.5098ZM96.5098 163.969L97.7075 167.785L98.7593 167.455L97.5615 163.639L96.3638 159.822L95.312 160.152L96.5098 163.969ZM97.5615 163.639L98.7584 167.455C102.567 166.261 105.32 162.695 105.32 158.491L101.32 158.491L97.3203 158.491C97.3203 159.128 96.9059 159.652 96.3646 159.822L97.5615 163.639ZM101.32 158.491L105.32 158.491C105.32 153.476 101.401 149.366 96.4458 149.114L96.2422 153.108L96.0385 157.103C96.7269 157.138 97.3203 157.724 97.3203 158.491L101.32 158.491ZM96.2422 153.108L96.3418 149.11L96.0674 149.103L95.9678 153.102L95.8682 157.1L96.1426 157.107L96.2422 153.108ZM95.9678 153.102V149.102C90.7917 149.102 86.6145 153.316 86.6143 158.491L90.6143 158.491L94.6143 158.491C94.6143 157.698 95.2461 157.102 95.9678 157.102V153.102ZM90.6143 158.491L86.6143 158.491C86.6144 162.739 89.425 166.331 93.2922 167.489L94.4395 163.657L95.5867 159.825C95.036 159.66 94.6143 159.132 94.6143 158.491L90.6143 158.491ZM94.4395 163.657L93.2926 167.489L94.3629 167.81L95.5098 163.978L96.6566 160.145L95.5863 159.825L94.4395 163.657ZM95.5098 163.978H91.5098V188.537H95.5098H99.5098V163.978H95.5098ZM95.5098 188.537V184.537H93.8408V188.537V192.537H95.5098V188.537ZM93.8408 188.537H89.8408V192.537H93.8408H97.8408V188.537H93.8408ZM93.8408 192.537V188.537H82.6084V192.537V196.537H93.8408V192.537ZM82.6084 192.537H86.6084V188.537H82.6084H78.6084V192.537H82.6084ZM82.6084 188.537V184.537H77.376V188.537V192.537H82.6084V188.537ZM77.376 188.537H73.376V192.537H77.376H81.376V188.537H77.376ZM77.376 192.537V188.537H66.1436V192.537V196.537H77.376V192.537ZM66.1436 192.537H70.1436V188.537H66.1436H62.1436V192.537H66.1436ZM66.1436 188.537V184.537H60.9102V188.537V192.537H66.1436V188.537ZM60.9102 188.537H56.9102V192.537H60.9102H64.9102V188.537H60.9102ZM60.9102 192.537V188.537H49.6777V192.537V196.537H60.9102V192.537ZM49.6777 192.537H53.6777V188.537H49.6777H45.6777V192.537H49.6777ZM49.6777 188.537V184.537H44.4453V188.537V192.537H49.6777V188.537ZM44.4453 188.537H40.4453V192.537H44.4453H48.4453V188.537H44.4453ZM44.4453 192.537V188.537H33.2129V192.537V196.537H44.4453V192.537ZM33.2129 192.537H37.2129V188.537H33.2129H29.2129V192.537H33.2129ZM33.2129 188.537V184.537H31.8535V188.537V192.537H33.2129V188.537ZM31.8535 188.537H35.8535V171.493H31.8535H27.8535V188.537H31.8535ZM31.8535 171.493L34.6882 174.315L35.1248 173.877L32.29 171.055L29.4553 168.233L29.0188 168.671L31.8535 171.493ZM32.29 171.055L35.1263 173.875L43.8871 165.066L41.0508 162.245L38.2145 159.425L29.4538 168.234L32.29 171.055ZM41.0508 162.245L43.8881 165.065L44.9643 163.982L42.127 161.162L39.2896 158.343L38.2134 159.426L41.0508 162.245ZM42.127 161.162L39.2566 163.948L40.3201 165.044L43.1904 162.258L46.0608 159.472L44.9973 158.376L42.127 161.162ZM43.1904 162.258L40.3204 165.044C42.0141 166.789 44.3889 167.882 47.0175 167.882L47.0176 163.882L47.0177 159.882C46.6498 159.882 46.3172 159.736 46.0604 159.472L43.1904 162.258ZM47.0176 163.882L47.0177 167.882C52.194 167.882 56.3709 163.666 56.3711 158.491L52.3711 158.491L48.3711 158.491C48.3711 159.285 47.7385 159.882 47.0175 159.882L47.0176 163.882ZM52.3711 158.491L56.3711 158.491C56.3708 153.316 52.1935 149.102 47.0177 149.102L47.0176 153.102L47.0175 157.102C47.7393 157.102 48.3711 157.698 48.3711 158.491L52.3711 158.491ZM47.0176 153.102L47.0175 149.102C41.8412 149.102 37.6653 153.316 37.665 158.491L41.665 158.491L45.665 158.491C45.6651 157.697 46.2968 157.102 47.0177 157.102L47.0176 153.102ZM41.665 158.491L37.665 158.491C37.6651 158.958 37.6988 159.423 37.7669 159.882L41.7236 159.296L45.6804 158.709C45.671 158.646 45.665 158.573 45.665 158.491L41.665 158.491ZM41.7236 159.296L37.7669 159.883L37.8773 160.627L41.834 160.04L45.7907 159.453L45.6804 158.709L41.7236 159.296ZM41.834 160.04L38.9978 157.219L38.4675 157.753L41.3037 160.573L44.1399 163.394L44.6702 162.861L41.834 160.04ZM41.3037 160.573L38.4675 157.753L28.1629 168.114L30.999 170.935L33.8352 173.755L44.1399 163.394L41.3037 160.573ZM30.999 170.935L28.1706 168.106L28.0251 168.252L30.8535 171.08L33.6819 173.909L33.8274 173.763L30.999 170.935ZM30.8535 171.08H26.8535V188.537H30.8535H34.8535V171.08H30.8535ZM30.8535 188.537V184.537H27.9805V188.537V192.537H30.8535V188.537ZM27.9805 188.537H23.9805V192.537H27.9805H31.9805V188.537H27.9805ZM27.9805 192.537V188.537H16.748V192.537V196.537H27.9805V192.537ZM16.748 192.537H20.748V188.537H16.748H12.748V192.537H16.748ZM16.748 188.537V184.537H11.5156V188.537V192.537H16.748V188.537ZM11.5156 188.537H7.51562V192.537H11.5156H15.5156V188.537H11.5156ZM11.5156 192.537V188.537H0.399414V192.537V196.537H11.5156V192.537ZM0.399414 192.537H4.39941V181.421H0.399414H-3.60059V192.537H0.399414ZM0.399414 181.421V185.421H4.39941V181.421V177.421H0.399414V181.421ZM4.39941 181.421H8.39941V176.188H4.39941H0.399414V181.421H4.39941ZM4.39941 176.188V172.188H0.399414V176.188V180.188H4.39941V176.188ZM0.399414 176.188H4.39941V164.956H0.399414H-3.60059V176.188H0.399414ZM0.399414 164.956V168.956H4.39941V164.956V160.956H0.399414V164.956ZM4.39941 164.956H8.39941V161.944H4.39941H0.399414V164.956H4.39941ZM4.39941 161.944V165.944H20.793V161.944V157.944H4.39941V161.944ZM20.793 161.944L23.6308 164.763L23.7763 164.617L20.9385 161.798L18.1006 158.979L17.9551 159.125L20.793 161.944ZM20.9385 161.798L23.7669 164.626L23.7679 164.625L20.9395 161.797L18.111 158.968L18.1101 158.969L20.9385 161.798ZM20.9395 161.797L23.7756 164.618L35.216 153.115L32.3799 150.294L29.5438 147.473L18.1033 158.976L20.9395 161.797ZM32.3799 150.294L35.215 153.116L35.8341 152.494L32.999 149.672L30.1639 146.85L29.5448 147.472L32.3799 150.294ZM32.999 149.672L31.9307 153.527L32.7764 153.761L33.8447 149.906L34.913 146.052L34.0673 145.817L32.999 149.672ZM33.8447 149.906L32.7758 153.761C33.5657 153.98 34.4022 154.102 35.2694 154.102L35.2695 150.102L35.2697 146.102C35.1538 146.102 35.0359 146.086 34.9136 146.052L33.8447 149.906ZM35.2695 150.102L35.2696 154.102C40.446 154.101 44.6229 149.886 44.623 144.711L40.623 144.711L36.623 144.711C36.623 145.505 35.9904 146.102 35.2694 146.102L35.2695 150.102ZM40.623 144.711L44.623 144.711C44.623 139.536 40.4459 135.32 35.2696 135.32L35.2695 139.32L35.2694 143.32C35.9905 143.32 36.623 143.917 36.623 144.711L40.623 144.711ZM35.2695 139.32L35.2693 135.32C30.0928 135.321 25.9171 139.536 25.917 144.711L29.917 144.711L33.917 144.711C33.917 143.916 34.5495 143.32 35.2697 143.32L35.2695 139.32ZM29.917 144.711L25.917 144.711C25.9171 146.997 26.7346 149.099 28.0902 150.728L31.165 148.17L34.2399 145.612C34.0374 145.368 33.917 145.062 33.917 144.711L29.917 144.711ZM31.165 148.17L28.0907 150.729L28.9638 151.778L32.0381 149.219L35.1124 146.66L34.2393 145.611L31.165 148.17ZM32.0381 149.219L29.2025 146.397L28.2396 147.365L31.0752 150.187L33.9108 153.008L34.8737 152.04L32.0381 149.219ZM31.0752 150.187L28.239 147.366L17.9802 157.681L20.8164 160.502L23.6526 163.323L33.9114 153.007L31.0752 150.187ZM20.8164 160.502L17.9786 157.683L17.5391 158.125L20.377 160.944L23.2148 163.763L23.6542 163.321L20.8164 160.502ZM20.377 160.944V156.944H4.39941V160.944V164.944H20.377V160.944ZM4.39941 160.944H8.39941V159.724H4.39941H0.399414V160.944H4.39941ZM4.39941 159.724V155.724H0.399414V159.724V163.724H4.39941V159.724ZM0.399414 159.724H4.39941V148.491H0.399414H-3.60059V159.724H0.399414ZM0.399414 148.491V152.491H4.39941V148.491V144.491H0.399414V148.491ZM4.39941 148.491H8.39941V143.259H4.39941H0.399414V148.491H4.39941ZM4.39941 143.259V139.259H0.399414V143.259V147.259H4.39941V143.259ZM0.399414 143.259H4.39941V132.026H0.399414H-3.60059V143.259H0.399414ZM0.399414 132.026V136.026H4.39941V132.026V128.026H0.399414V132.026ZM4.39941 132.026H8.39941V126.793H4.39941H0.399414V132.026H4.39941ZM4.39941 126.793V122.793H0.399414V126.793V130.793H4.39941V126.793ZM0.399414 126.793H4.39941V115.561H0.399414H-3.60059V126.793H0.399414ZM0.399414 115.561V119.561H4.39941V115.561V111.561H0.399414V115.561ZM4.39941 115.561H8.39941V110.328H4.39941H0.399414V115.561H4.39941ZM4.39941 110.328V106.328H0.399414V110.328V114.328H4.39941V110.328ZM0.399414 110.328H4.39941V99.0957H0.399414H-3.60059V110.328H0.399414ZM0.399414 99.0957V103.096H4.39941V99.0957V95.0957H0.399414V99.0957ZM4.39941 99.0957H8.39941V98.9795H4.39941H0.399414V99.0957H4.39941ZM4.39941 98.9795V102.979H31.0254V98.9795V94.9795H4.39941V98.9795ZM31.0254 98.9795L27.4263 100.725L27.8365 101.571L31.4355 99.8252L35.0346 98.0797L34.6245 97.234L31.0254 98.9795ZM31.4355 99.8252L27.8367 101.571C29.35 104.691 32.5435 106.854 36.249 106.854V102.854V98.8535C35.7362 98.8535 35.2668 98.5583 35.0344 98.0793L31.4355 99.8252ZM36.249 102.854L36.3486 106.852L36.6231 106.845L36.5234 102.847L36.4238 98.8479L36.1494 98.8548L36.249 102.854ZM36.5234 102.847L36.7272 106.841C41.5229 106.597 45.3473 102.74 45.5896 97.944L41.5947 97.7422L37.5998 97.5404C37.563 98.2684 36.985 98.8179 36.3197 98.8519L36.5234 102.847ZM41.5947 97.7422L45.5935 97.8404L45.6004 97.5621L41.6016 97.4639L37.6028 97.3657L37.5959 97.644L41.5947 97.7422ZM41.6016 97.4639H45.6016C45.6016 92.449 41.6827 88.3381 36.7272 88.0853L36.5234 92.0801L36.3196 96.0749C37.0076 96.11 37.6016 96.6957 37.6016 97.4639H41.6016ZM36.5234 92.0801L36.6231 88.0813L36.3486 88.0745L36.249 92.0732L36.1494 96.072L36.4238 96.0788L36.5234 92.0801ZM36.249 92.0732V88.0732C31.5267 88.0732 27.6379 91.5809 26.9911 96.1269L30.9512 96.6904L34.9113 97.2539C35.009 96.5671 35.5938 96.0732 36.249 96.0732V92.0732ZM30.9512 96.6904L26.9911 96.1264L26.8075 97.4155L30.7676 97.9795L34.7276 98.5435L34.9112 97.2544L30.9512 96.6904ZM30.7676 97.9795V93.9795H4.39941V97.9795V101.979H30.7676V97.9795ZM4.39941 97.9795H8.39941V93.8633H4.39941H0.399414V97.9795H4.39941ZM4.39941 93.8633V89.8633H0.399414V93.8633V97.8633H4.39941V93.8633ZM0.399414 93.8633H4.39941V82.6309H0.399414H-3.60059V93.8633H0.399414ZM0.399414 82.6309V86.6309H4.39941V82.6309V78.6309H0.399414V82.6309ZM4.39941 82.6309H8.39941V77.3984H4.39941H0.399414V82.6309H4.39941ZM4.39941 77.3984V73.3984H0.399414V77.3984V81.3984H4.39941V77.3984ZM0.399414 77.3984H4.39941V66.166H0.399414H-3.60059V77.3984H0.399414ZM0.399414 66.166V70.166H4.39941V66.166V62.166H0.399414V66.166ZM4.39941 66.166H8.39941V60.9336H4.39941H0.399414V66.166H4.39941ZM4.39941 60.9336V56.9336H0.399414V60.9336V64.9336H4.39941V60.9336ZM0.399414 60.9336H4.39941V49.7012H0.399414H-3.60059V60.9336H0.399414ZM0.399414 49.7012V53.7012H4.39941V49.7012V45.7012H0.399414V49.7012ZM4.39941 49.7012H8.39941V44.4678H4.39941H0.399414V49.7012H4.39941ZM4.39941 44.4678V40.4678H0.399414V44.4678V48.4678H4.39941V44.4678ZM0.399414 44.4678H4.39941V33.2354H0.399414H-3.60059V44.4678H0.399414ZM0.399414 33.2354V37.2354H4.39941V33.2354V29.2354H0.399414V33.2354ZM4.39941 33.2354H8.39941V31.0293H4.39941H0.399414V33.2354H4.39941ZM4.39941 31.0293V35.0293H20.377V31.0293V27.0293H4.39941V31.0293ZM20.377 31.0293L17.5391 33.8483L17.9786 34.2907L20.8164 31.4717L23.6542 28.6527L23.2148 28.2103L20.377 31.0293ZM20.8164 31.4717L17.9803 34.2924L27.8182 44.184L30.6543 41.3633L33.4904 38.5426L23.6525 28.651L20.8164 31.4717ZM30.6543 41.3633L27.8195 44.1854L28.6887 45.0584L31.5234 42.2363L34.3582 39.4142L33.4891 38.5412L30.6543 41.3633ZM31.5234 42.2363L28.2055 40.0022L27.517 41.0247L30.835 43.2588L34.1529 45.4929L34.8414 44.4705L31.5234 42.2363ZM30.835 43.2588L27.5169 41.0249C26.5061 42.5262 25.9171 44.3375 25.917 46.278L29.917 46.2783L33.917 46.2786C33.917 45.9751 34.0055 45.7119 34.1531 45.4927L30.835 43.2588ZM29.917 46.2783L25.917 46.2784C25.9171 51.4528 30.0927 55.6687 35.2693 55.6689L35.2695 51.6689L35.2697 47.6689C34.5496 47.6689 33.917 47.0731 33.917 46.2782L29.917 46.2783ZM35.2695 51.6689L35.2696 55.6689C40.446 55.6688 44.6229 51.4533 44.623 46.2784L40.623 46.2783L36.623 46.2782C36.623 47.0723 35.9904 47.6689 35.2694 47.6689L35.2695 51.6689ZM40.623 46.2783L44.623 46.278C44.6227 41.103 40.4454 36.8888 35.2696 36.8887L35.2695 40.8887L35.2694 44.8887C35.9911 44.8887 36.623 45.4853 36.623 46.2786L40.623 46.2783ZM35.2695 40.8887L35.2693 36.8887C34.0354 36.8887 32.8541 37.1312 31.7734 37.5687L33.2744 41.2764L34.7754 44.9841C34.9263 44.923 35.09 44.8887 35.2697 44.8887L35.2695 40.8887ZM33.2744 41.2764L31.772 37.5693L30.8491 37.9433L32.3516 41.6504L33.854 45.3575L34.7769 44.9835L33.2744 41.2764ZM32.3516 41.6504L35.1878 38.8298L34.4847 38.1228L31.6484 40.9434L28.8122 43.7639L29.5153 44.471L32.3516 41.6504ZM31.6484 40.9434L34.4844 38.1225L23.7755 27.3559L20.9395 30.1768L18.1034 32.9976L28.8124 43.7642L31.6484 40.9434ZM20.9395 30.1768V26.1768H20.9385V30.1768V34.1768H20.9395V30.1768ZM20.9385 30.1768L23.7763 27.3577L23.6298 27.2103L20.792 30.0293L17.9542 32.8483L18.1007 32.9958L20.9385 30.1768ZM20.792 30.0293V26.0293H4.39941V30.0293V34.0293H20.792V30.0293ZM4.39941 30.0293H8.39941V28.0029H4.39941H0.399414V30.0293H4.39941ZM4.39941 28.0029V24.0029H0.399414V28.0029V32.0029H4.39941V28.0029ZM0.399414 28.0029H4.39941V16.7705H0.399414H-3.60059V28.0029H0.399414ZM0.399414 16.7705V20.7705H4.39941V16.7705V12.7705H0.399414V16.7705ZM4.39941 16.7705H8.39941V11.5381H4.39941H0.399414V16.7705H4.39941ZM4.39941 11.5381V7.53809H0.399414V11.5381V15.5381H4.39941V11.5381ZM0.399414 11.5381H4.39941V0.421875H0.399414H-3.60059V11.5381H0.399414ZM0.399414 0.421875V4.42188H11.5156V0.421875V-3.57812H0.399414V0.421875ZM11.5156 0.421875H7.51562V4.42188H11.5156H15.5156V0.421875H11.5156Z" fill="#4E4E4E" mask="url(#path-2-inside-1_27_973)"/>
<path d="M62.6627 127.697V123.377H58.2947V101.201H62.6627V96.8331H76.1987V101.201H80.6147V110.321H75.7187V101.681H63.1427V122.897H75.7187V114.161H80.6147V123.377H76.1987V127.697H62.6627ZM86.4197 127.697V101.201H90.7877V96.8331H104.324V101.201H108.74V114.641H104.324V119.009H91.2677V127.697H86.4197ZM91.2677 114.161H103.844V101.681H91.2677V114.161ZM118.913 127.697V123.377H114.545V96.8331H119.393V122.897H131.969V96.8331H136.865V123.377H132.449V127.697H118.913Z" fill="#4C4C4C"/>
</g>
</svg>
