<svg width="193" height="193" viewBox="0 0 193 193" fill="none" xmlns="http://www.w3.org/2000/svg">
<ellipse cx="146.979" cy="157.84" rx="6.92351" ry="6.92361" fill="black"/>
<path d="M9.61426 5.5H17.8438V1.5H26.0732V5.5H27.9648V20.1006L28.5469 20.6855L40.5566 32.7598C40.0429 33.726 39.751 34.8297 39.751 36.002C39.7511 39.8058 42.8183 42.8896 46.6016 42.8896C50.3848 42.8896 53.4521 39.8057 53.4521 36.002C53.4521 32.1981 50.3848 29.1143 46.6016 29.1143C45.4357 29.1143 44.338 29.4073 43.377 29.9238L31.9648 18.4492V5.5H34.3027V1.5H42.5312V5.5H50.7607V1.5H58.9902V5.5H67.2197V1.5H75.4482V5.5H83.6777V1.5H91.9072V5.5H93.5752V28.417C90.7457 29.2637 88.6818 31.8976 88.6816 35.0176C88.6816 38.8215 91.7489 41.9053 95.5322 41.9053C99.3155 41.9052 102.383 38.8214 102.383 35.0176C102.383 31.9293 100.36 29.3163 97.5752 28.4424V5.5H100.137V1.5H108.365V5.5H116.595V1.5H124.824V5.5H133.054V1.5H141.282V5.5H149.512V1.5H157.741V5.5H159.1V20.417L149.276 30.293C148.182 29.5485 146.862 29.1143 145.441 29.1143C141.658 29.1143 138.591 32.1981 138.591 36.002C138.591 39.8057 141.658 42.8896 145.441 42.8896C149.225 42.8896 152.292 39.8058 152.292 36.002C152.292 35.0931 152.115 34.226 151.797 33.4316L162.518 22.6533L163.1 22.0684V5.5H165.971V1.5H174.2V5.5H182.429V1.5H190.544V9.61426H186.543V17.8438H190.544V26.0732H186.543V29.082H171.033L170.446 29.6719L158.762 41.4189C157.972 41.0993 157.11 40.9219 156.206 40.9219C152.423 40.922 149.357 44.005 149.356 47.8086C149.356 51.6124 152.423 54.6962 156.206 54.6963C159.989 54.6963 163.057 51.6125 163.057 47.8086C163.057 46.38 162.624 45.0533 161.883 43.9531L172.696 33.082H186.543V34.3027H190.544V42.5322H186.543V50.7607H190.544V58.9902H186.543V67.2197H190.544V75.4492H186.543V83.6777H190.544V91.9072H186.543V96.0215H162.007C161.532 92.684 158.678 90.1182 155.228 90.1182C151.444 90.1183 148.378 93.202 148.378 97.0059C148.378 100.81 151.444 103.893 155.228 103.894C157.935 103.894 160.275 102.314 161.388 100.021H186.543V100.137H190.544V108.366H186.543V116.596H190.544V124.824H186.543V133.054H190.544V141.283H186.543V149.513H190.544V157.742H186.543V157.979H169.761L160.483 148.65C161.478 147.455 162.078 145.915 162.078 144.234C162.078 140.431 159.011 137.348 155.228 137.348C151.444 137.348 148.378 140.431 148.378 144.234C148.378 148.038 151.444 151.122 155.228 151.122C155.859 151.122 156.471 151.034 157.052 150.873L167.511 161.389L168.097 161.979H186.543V165.971H190.544V174.2H186.543V182.43H190.544V190.544H182.429V186.544H174.2V190.544H165.971V186.544H163.1V169.976L162.518 169.391L146.859 153.647L145.441 155.059L144.023 156.469L159.1 171.627V186.544H157.741V190.544H149.512V186.544H141.283V190.544H133.054V186.544H124.824V190.544H116.595V186.544H108.365V190.544H100.137V186.544H97.5752V164.585C100.36 163.711 102.383 161.098 102.383 158.01C102.383 154.206 99.3154 151.122 95.5322 151.122C91.749 151.122 88.6817 154.206 88.6816 158.01C88.6816 161.13 90.7456 163.764 93.5752 164.61V186.544H91.9072V190.544H83.6777V186.544H75.4482V190.544H67.2197V186.544H58.9902V190.544H50.7607V186.544H42.5312V190.544H34.3027V186.544H32.9434V171.627L41.7012 162.82C42.9451 164.101 44.6804 164.897 46.6016 164.897C50.3848 164.897 53.4521 161.814 53.4521 158.01C53.4521 154.206 50.3848 151.122 46.6016 151.122C42.8183 151.122 39.751 154.206 39.751 158.01C39.751 158.357 39.7767 158.699 39.8262 159.033L29.5254 169.391L28.9434 169.976V186.544H26.0732V190.544H17.8438V186.544H9.61426V190.544H1.5V182.43H5.5V174.2H1.5V165.971H5.5V162.962H21.0107L21.5967 162.372L33.0332 150.873C33.6144 151.034 34.2262 151.122 34.8584 151.122C38.6416 151.122 41.709 148.038 41.709 144.234C41.7087 140.431 38.6415 137.348 34.8584 137.348C31.0752 137.348 28.008 140.431 28.0078 144.234C28.0078 145.915 28.607 147.455 29.6016 148.65L19.3467 158.962H5.5V157.742H1.5V149.513H5.5V141.283H1.5V133.054H5.5V124.824H1.5V116.596H5.5V108.366H1.5V100.137H5.5V100.021H29.6768C30.789 102.314 33.1294 103.894 35.8369 103.894C39.6202 103.894 42.6875 100.81 42.6875 97.0059C42.6875 93.202 39.6202 90.1182 35.8369 90.1182C32.3861 90.1182 29.5328 92.684 29.0576 96.0215H5.5V91.9072H1.5V83.6777H5.5V75.4492H1.5V67.2197H5.5V58.9902H1.5V50.7607H5.5V42.5322H1.5V34.3027H5.5V32.0977H19.3467L29.1807 41.9844C28.4399 43.0846 28.0079 44.4122 28.0078 45.8408C28.0078 49.6447 31.0751 52.7285 34.8584 52.7285C38.6416 52.7284 41.709 49.6446 41.709 45.8408C41.7088 42.0372 38.6415 38.9542 34.8584 38.9541C33.9544 38.9541 33.0919 39.1313 32.3018 39.4512L21.5967 28.6875L21.0107 28.0977H5.5V26.0732H1.5V17.8438H5.5V9.61426H1.5V1.5H9.61426V5.5Z" fill="#66D387"/>
<path d="M9.61426 5.5H8.11426V7H9.61426V5.5ZM17.8438 5.5V7H19.3438V5.5H17.8438ZM17.8438 1.5V0H16.3438V1.5H17.8438ZM26.0732 1.5H27.5732V0H26.0732V1.5ZM26.0732 5.5H24.5732V7H26.0732V5.5ZM27.9648 5.5H29.4648V4H27.9648V5.5ZM27.9648 20.1006H26.4648V20.7197L26.9015 21.1586L27.9648 20.1006ZM28.5469 20.6855L29.6104 19.6277L29.6102 19.6276L28.5469 20.6855ZM40.5566 32.7598L41.8811 33.4639L42.4007 32.4867L41.6201 31.7019L40.5566 32.7598ZM39.751 36.002H38.251V36.002L39.751 36.002ZM46.6016 42.8896V44.3896H46.6016L46.6016 42.8896ZM53.4521 36.002L54.9521 36.002V36.002H53.4521ZM46.6016 29.1143L46.6016 27.6143H46.6016V29.1143ZM43.377 29.9238L42.3134 30.9816L43.102 31.7745L44.0871 31.2451L43.377 29.9238ZM31.9648 18.4492H30.4648V19.0681L30.9013 19.507L31.9648 18.4492ZM31.9648 5.5V4H30.4648V5.5H31.9648ZM34.3027 5.5V7H35.8027V5.5H34.3027ZM34.3027 1.5V0H32.8027V1.5H34.3027ZM42.5312 1.5H44.0312V0H42.5312V1.5ZM42.5312 5.5H41.0312V7H42.5312V5.5ZM50.7607 5.5V7H52.2607V5.5H50.7607ZM50.7607 1.5V0H49.2607V1.5H50.7607ZM58.9902 1.5H60.4902V0H58.9902V1.5ZM58.9902 5.5H57.4902V7H58.9902V5.5ZM67.2197 5.5V7H68.7197V5.5H67.2197ZM67.2197 1.5V0H65.7197V1.5H67.2197ZM75.4482 1.5H76.9482V0H75.4482V1.5ZM75.4482 5.5H73.9482V7H75.4482V5.5ZM83.6777 5.5V7H85.1777V5.5H83.6777ZM83.6777 1.5V0H82.1777V1.5H83.6777ZM91.9072 1.5H93.4072V0H91.9072V1.5ZM91.9072 5.5H90.4072V7H91.9072V5.5ZM93.5752 5.5H95.0752V4H93.5752V5.5ZM93.5752 28.417L94.0052 29.854L95.0752 29.5338V28.417H93.5752ZM88.6816 35.0176L87.1816 35.0175V35.0176H88.6816ZM95.5322 41.9053V43.4053H95.5323L95.5322 41.9053ZM102.383 35.0176H103.883V35.0175L102.383 35.0176ZM97.5752 28.4424H96.0752V29.5438L97.1261 29.8736L97.5752 28.4424ZM97.5752 5.5V4H96.0752V5.5H97.5752ZM100.137 5.5V7H101.637V5.5H100.137ZM100.137 1.5V0H98.6367V1.5H100.137ZM108.365 1.5H109.865V0H108.365V1.5ZM108.365 5.5H106.865V7H108.365V5.5ZM116.595 5.5V7H118.095V5.5H116.595ZM116.595 1.5V0H115.095V1.5H116.595ZM124.824 1.5H126.324V0H124.824V1.5ZM124.824 5.5H123.324V7H124.824V5.5ZM133.054 5.5V7H134.554V5.5H133.054ZM133.054 1.5V0H131.554V1.5H133.054ZM141.282 1.5H142.782V0H141.282V1.5ZM141.282 5.5H139.782V7H141.282V5.5ZM149.512 5.5V7H151.012V5.5H149.512ZM149.512 1.5V0H148.012V1.5H149.512ZM157.741 1.5H159.241V0H157.741V1.5ZM157.741 5.5H156.241V7H157.741V5.5ZM159.1 5.5H160.6V4H159.1V5.5ZM159.1 20.417L160.163 21.4748L160.6 21.036V20.417H159.1ZM149.276 30.293L148.433 31.5331L149.462 32.2335L150.34 31.3508L149.276 30.293ZM145.441 29.1143V27.6143H145.441L145.441 29.1143ZM138.591 36.002H137.091V36.002L138.591 36.002ZM145.441 42.8896L145.441 44.3896H145.441V42.8896ZM152.292 36.002L153.792 36.002V36.002H152.292ZM151.797 33.4316L150.733 32.3738L150.038 33.0733L150.404 33.9892L151.797 33.4316ZM162.518 22.6533L161.454 21.5953L161.454 21.5955L162.518 22.6533ZM163.1 22.0684L164.163 23.1264L164.6 22.6875V22.0684H163.1ZM163.1 5.5V4H161.6V5.5H163.1ZM165.971 5.5V7H167.471V5.5H165.971ZM165.971 1.5V0H164.471V1.5H165.971ZM174.2 1.5H175.7V0H174.2V1.5ZM174.2 5.5H172.7V7H174.2V5.5ZM182.429 5.5V7H183.929V5.5H182.429ZM182.429 1.5V0H180.929V1.5H182.429ZM190.544 1.5H192.044V0H190.544V1.5ZM190.544 9.61426V11.1143H192.044V9.61426H190.544ZM186.543 9.61426V8.11426H185.043V9.61426H186.543ZM186.543 17.8438H185.043V19.3438H186.543V17.8438ZM190.544 17.8438H192.044V16.3438H190.544V17.8438ZM190.544 26.0732V27.5732H192.044V26.0732H190.544ZM186.543 26.0732V24.5732H185.043V26.0732H186.543ZM186.543 29.082V30.582H188.043V29.082H186.543ZM171.033 29.082V27.582H170.41L169.97 28.024L171.033 29.082ZM170.446 29.6719L169.383 28.6139L169.383 28.614L170.446 29.6719ZM158.762 41.4189L158.199 42.8094L159.123 43.1831L159.825 42.4768L158.762 41.4189ZM156.206 40.9219V39.4219H156.206L156.206 40.9219ZM149.356 47.8086L147.856 47.8085V47.8086H149.356ZM156.206 54.6963L156.206 56.1963H156.206V54.6963ZM163.057 47.8086H164.557V47.8085L163.057 47.8086ZM161.883 43.9531L160.819 42.8953L159.95 43.7688L160.639 44.7908L161.883 43.9531ZM172.696 33.082V31.582H172.073L171.633 32.0242L172.696 33.082ZM186.543 33.082H188.043V31.582H186.543V33.082ZM186.543 34.3027H185.043V35.8027H186.543V34.3027ZM190.544 34.3027H192.044V32.8027H190.544V34.3027ZM190.544 42.5322V44.0322H192.044V42.5322H190.544ZM186.543 42.5322V41.0322H185.043V42.5322H186.543ZM186.543 50.7607H185.043V52.2607H186.543V50.7607ZM190.544 50.7607H192.044V49.2607H190.544V50.7607ZM190.544 58.9902V60.4902H192.044V58.9902H190.544ZM186.543 58.9902V57.4902H185.043V58.9902H186.543ZM186.543 67.2197H185.043V68.7197H186.543V67.2197ZM190.544 67.2197H192.044V65.7197H190.544V67.2197ZM190.544 75.4492V76.9492H192.044V75.4492H190.544ZM186.543 75.4492V73.9492H185.043V75.4492H186.543ZM186.543 83.6777H185.043V85.1777H186.543V83.6777ZM190.544 83.6777H192.044V82.1777H190.544V83.6777ZM190.544 91.9072V93.4072H192.044V91.9072H190.544ZM186.543 91.9072V90.4072H185.043V91.9072H186.543ZM186.543 96.0215V97.5215H188.043V96.0215H186.543ZM162.007 96.0215L160.522 96.2329L160.705 97.5215H162.007V96.0215ZM155.228 90.1182V88.6182H155.227L155.228 90.1182ZM148.378 97.0059H146.878V97.0059H148.378ZM155.228 103.894L155.227 105.394H155.228V103.894ZM161.388 100.021V98.5215H160.448L160.038 99.3667L161.388 100.021ZM186.543 100.021H188.043V98.5215H186.543V100.021ZM186.543 100.137H185.043V101.637H186.543V100.137ZM190.544 100.137H192.044V98.6367H190.544V100.137ZM190.544 108.366V109.866H192.044V108.366H190.544ZM186.543 108.366V106.866H185.043V108.366H186.543ZM186.543 116.596H185.043V118.096H186.543V116.596ZM190.544 116.596H192.044V115.096H190.544V116.596ZM190.544 124.824V126.324H192.044V124.824H190.544ZM186.543 124.824V123.324H185.043V124.824H186.543ZM186.543 133.054H185.043V134.554H186.543V133.054ZM190.544 133.054H192.044V131.554H190.544V133.054ZM190.544 141.283V142.783H192.044V141.283H190.544ZM186.543 141.283V139.783H185.043V141.283H186.543ZM186.543 149.513H185.043V151.013H186.543V149.513ZM190.544 149.513H192.044V148.013H190.544V149.513ZM190.544 157.742V159.242H192.044V157.742H190.544ZM186.543 157.742V156.242H185.043V157.742H186.543ZM186.543 157.979V159.479H188.043V157.979H186.543ZM169.761 157.979L168.697 159.036L169.137 159.479H169.761V157.979ZM160.483 148.65L159.33 147.691L158.457 148.74L159.42 149.708L160.483 148.65ZM162.078 144.234H163.578V144.234L162.078 144.234ZM155.228 137.348V135.848H155.227L155.228 137.348ZM148.378 144.234L146.878 144.234V144.234H148.378ZM155.228 151.122L155.227 152.622H155.228V151.122ZM157.052 150.873L158.115 149.815L157.497 149.193L156.651 149.428L157.052 150.873ZM167.511 161.389L168.575 160.332L168.574 160.331L167.511 161.389ZM168.097 161.979L167.033 163.036L167.472 163.479H168.097V161.979ZM186.543 161.979H188.043V160.479H186.543V161.979ZM186.543 165.971H185.043V167.471H186.543V165.971ZM190.544 165.971H192.044V164.471H190.544V165.971ZM190.544 174.2V175.7H192.044V174.2H190.544ZM186.543 174.2V172.7H185.043V174.2H186.543ZM186.543 182.43H185.043V183.93H186.543V182.43ZM190.544 182.43H192.044V180.93H190.544V182.43ZM190.544 190.544V192.044H192.044V190.544H190.544ZM182.429 190.544H180.929V192.044H182.429V190.544ZM182.429 186.544H183.929V185.044H182.429V186.544ZM174.2 186.544V185.044H172.7V186.544H174.2ZM174.2 190.544V192.044H175.7V190.544H174.2ZM165.971 190.544H164.471V192.044H165.971V190.544ZM165.971 186.544H167.471V185.044H165.971V186.544ZM163.1 186.544H161.6V188.044H163.1V186.544ZM163.1 169.976H164.6V169.356L164.163 168.918L163.1 169.976ZM162.518 169.391L161.454 170.448L161.454 170.449L162.518 169.391ZM146.859 153.647L147.923 152.59L146.865 151.526L145.801 152.584L146.859 153.647ZM145.441 155.059L146.499 156.122L146.499 156.122L145.441 155.059ZM144.023 156.469L142.966 155.405L141.902 156.463L142.96 157.527L144.023 156.469ZM159.1 171.627H160.6V171.008L160.163 170.569L159.1 171.627ZM159.1 186.544V188.044H160.6V186.544H159.1ZM157.741 186.544V185.044H156.241V186.544H157.741ZM157.741 190.544V192.044H159.241V190.544H157.741ZM149.512 190.544H148.012V192.044H149.512V190.544ZM149.512 186.544H151.012V185.044H149.512V186.544ZM141.283 186.544V185.044H139.783V186.544H141.283ZM141.283 190.544V192.044H142.783V190.544H141.283ZM133.054 190.544H131.554V192.044H133.054V190.544ZM133.054 186.544H134.554V185.044H133.054V186.544ZM124.824 186.544V185.044H123.324V186.544H124.824ZM124.824 190.544V192.044H126.324V190.544H124.824ZM116.595 190.544H115.095V192.044H116.595V190.544ZM116.595 186.544H118.095V185.044H116.595V186.544ZM108.365 186.544V185.044H106.865V186.544H108.365ZM108.365 190.544V192.044H109.865V190.544H108.365ZM100.137 190.544H98.6367V192.044H100.137V190.544ZM100.137 186.544H101.637V185.044H100.137V186.544ZM97.5752 186.544H96.0752V188.044H97.5752V186.544ZM97.5752 164.585L97.1261 163.154L96.0752 163.484V164.585H97.5752ZM102.383 158.01H103.883V158.01L102.383 158.01ZM95.5322 151.122L95.5323 149.622H95.5322V151.122ZM88.6816 158.01L87.1816 158.01V158.01H88.6816ZM93.5752 164.61H95.0752V163.494L94.0052 163.173L93.5752 164.61ZM93.5752 186.544V188.044H95.0752V186.544H93.5752ZM91.9072 186.544V185.044H90.4072V186.544H91.9072ZM91.9072 190.544V192.044H93.4072V190.544H91.9072ZM83.6777 190.544H82.1777V192.044H83.6777V190.544ZM83.6777 186.544H85.1777V185.044H83.6777V186.544ZM75.4482 186.544V185.044H73.9482V186.544H75.4482ZM75.4482 190.544V192.044H76.9482V190.544H75.4482ZM67.2197 190.544H65.7197V192.044H67.2197V190.544ZM67.2197 186.544H68.7197V185.044H67.2197V186.544ZM58.9902 186.544V185.044H57.4902V186.544H58.9902ZM58.9902 190.544V192.044H60.4902V190.544H58.9902ZM50.7607 190.544H49.2607V192.044H50.7607V190.544ZM50.7607 186.544H52.2607V185.044H50.7607V186.544ZM42.5312 186.544V185.044H41.0312V186.544H42.5312ZM42.5312 190.544V192.044H44.0312V190.544H42.5312ZM34.3027 190.544H32.8027V192.044H34.3027V190.544ZM34.3027 186.544H35.8027V185.044H34.3027V186.544ZM32.9434 186.544H31.4434V188.044H32.9434V186.544ZM32.9434 171.627L31.8798 170.569L31.4434 171.008V171.627H32.9434ZM41.7012 162.82L42.7772 161.775L41.7138 160.68L40.6376 161.763L41.7012 162.82ZM46.6016 164.897V166.397H46.6016L46.6016 164.897ZM53.4521 158.01H54.9521V158.01L53.4521 158.01ZM46.6016 151.122L46.6016 149.622H46.6016V151.122ZM39.751 158.01L38.251 158.01V158.01H39.751ZM39.8262 159.033L40.8897 160.091L41.4202 159.558L41.31 158.813L39.8262 159.033ZM29.5254 169.391L30.5887 170.449L30.589 170.448L29.5254 169.391ZM28.9434 169.976L27.88 168.918L27.4434 169.356V169.976H28.9434ZM28.9434 186.544V188.044H30.4434V186.544H28.9434ZM26.0732 186.544V185.044H24.5732V186.544H26.0732ZM26.0732 190.544V192.044H27.5732V190.544H26.0732ZM17.8438 190.544H16.3438V192.044H17.8438V190.544ZM17.8438 186.544H19.3438V185.044H17.8438V186.544ZM9.61426 186.544V185.044H8.11426V186.544H9.61426ZM9.61426 190.544V192.044H11.1143V190.544H9.61426ZM1.5 190.544H0V192.044H1.5V190.544ZM1.5 182.43V180.93H0V182.43H1.5ZM5.5 182.43V183.93H7V182.43H5.5ZM5.5 174.2H7V172.7H5.5V174.2ZM1.5 174.2H0V175.7H1.5V174.2ZM1.5 165.971V164.471H0V165.971H1.5ZM5.5 165.971V167.471H7V165.971H5.5ZM5.5 162.962V161.462H4V162.962H5.5ZM21.0107 162.962V164.462H21.635L22.0749 164.019L21.0107 162.962ZM21.5967 162.372L20.5331 161.314L20.5325 161.315L21.5967 162.372ZM33.0332 150.873L33.434 149.428L32.5884 149.193L31.9697 149.815L33.0332 150.873ZM34.8584 151.122V152.622H34.8584L34.8584 151.122ZM41.709 144.234H43.209V144.234L41.709 144.234ZM34.8584 137.348L34.8584 135.848H34.8584V137.348ZM28.0078 144.234L26.5078 144.234V144.234H28.0078ZM29.6016 148.65L30.6651 149.708L31.6276 148.74L30.7547 147.691L29.6016 148.65ZM19.3467 158.962V160.462H19.9704L20.4103 160.02L19.3467 158.962ZM5.5 158.962H4V160.462H5.5V158.962ZM5.5 157.742H7V156.242H5.5V157.742ZM1.5 157.742H0V159.242H1.5V157.742ZM1.5 149.513V148.013H0V149.513H1.5ZM5.5 149.513V151.013H7V149.513H5.5ZM5.5 141.283H7V139.783H5.5V141.283ZM1.5 141.283H0V142.783H1.5V141.283ZM1.5 133.054V131.554H0V133.054H1.5ZM5.5 133.054V134.554H7V133.054H5.5ZM5.5 124.824H7V123.324H5.5V124.824ZM1.5 124.824H0V126.324H1.5V124.824ZM1.5 116.596V115.096H0V116.596H1.5ZM5.5 116.596V118.096H7V116.596H5.5ZM5.5 108.366H7V106.866H5.5V108.366ZM1.5 108.366H0V109.866H1.5V108.366ZM1.5 100.137V98.6367H0V100.137H1.5ZM5.5 100.137V101.637H7V100.137H5.5ZM5.5 100.021V98.5215H4V100.021H5.5ZM29.6768 100.021L31.0263 99.3667L30.6162 98.5215H29.6768V100.021ZM35.8369 103.894V105.394H35.8369L35.8369 103.894ZM42.6875 97.0059H44.1875V97.0059H42.6875ZM35.8369 90.1182L35.8369 88.6182H35.8369V90.1182ZM29.0576 96.0215V97.5215H30.3592L30.5426 96.2329L29.0576 96.0215ZM5.5 96.0215H4V97.5215H5.5V96.0215ZM5.5 91.9072H7V90.4072H5.5V91.9072ZM1.5 91.9072H0V93.4072H1.5V91.9072ZM1.5 83.6777V82.1777H0V83.6777H1.5ZM5.5 83.6777V85.1777H7V83.6777H5.5ZM5.5 75.4492H7V73.9492H5.5V75.4492ZM1.5 75.4492H0V76.9492H1.5V75.4492ZM1.5 67.2197V65.7197H0V67.2197H1.5ZM5.5 67.2197V68.7197H7V67.2197H5.5ZM5.5 58.9902H7V57.4902H5.5V58.9902ZM1.5 58.9902H0V60.4902H1.5V58.9902ZM1.5 50.7607V49.2607H0V50.7607H1.5ZM5.5 50.7607V52.2607H7V50.7607H5.5ZM5.5 42.5322H7V41.0322H5.5V42.5322ZM1.5 42.5322H0V44.0322H1.5V42.5322ZM1.5 34.3027V32.8027H0V34.3027H1.5ZM5.5 34.3027V35.8027H7V34.3027H5.5ZM5.5 32.0977V30.5977H4V32.0977H5.5ZM19.3467 32.0977L20.4102 31.0398L19.9704 30.5977H19.3467V32.0977ZM29.1807 41.9844L30.4249 42.8221L31.113 41.8001L30.2442 40.9266L29.1807 41.9844ZM28.0078 45.8408L26.5078 45.8407V45.8408H28.0078ZM34.8584 52.7285V54.2285H34.8584L34.8584 52.7285ZM41.709 45.8408H43.209V45.8407L41.709 45.8408ZM34.8584 38.9541L34.8584 37.4541H34.8584V38.9541ZM32.3018 39.4512L31.2382 40.5089L31.9409 41.2155L32.8646 40.8416L32.3018 39.4512ZM21.5967 28.6875L20.5325 29.7446L20.5331 29.7453L21.5967 28.6875ZM21.0107 28.0977L22.0749 27.0405L21.635 26.5977H21.0107V28.0977ZM5.5 28.0977H4V29.5977H5.5V28.0977ZM5.5 26.0732H7V24.5732H5.5V26.0732ZM1.5 26.0732H0V27.5732H1.5V26.0732ZM1.5 17.8438V16.3438H0V17.8438H1.5ZM5.5 17.8438V19.3438H7V17.8438H5.5ZM5.5 9.61426H7V8.11426H5.5V9.61426ZM1.5 9.61426H0V11.1143H1.5V9.61426ZM1.5 1.5V0H0V1.5H1.5ZM9.61426 1.5H11.1143V0H9.61426V1.5ZM9.61426 5.5V7H17.8438V5.5V4H9.61426V5.5ZM17.8438 5.5H19.3438V1.5H17.8438H16.3438V5.5H17.8438ZM17.8438 1.5V3H26.0732V1.5V0H17.8438V1.5ZM26.0732 1.5H24.5732V5.5H26.0732H27.5732V1.5H26.0732ZM26.0732 5.5V7H27.9648V5.5V4H26.0732V5.5ZM27.9648 5.5H26.4648V20.1006H27.9648H29.4648V5.5H27.9648ZM27.9648 20.1006L26.9015 21.1586L27.4836 21.7435L28.5469 20.6855L29.6102 19.6276L29.0282 19.0426L27.9648 20.1006ZM28.5469 20.6855L27.4834 21.7434L39.4931 33.8176L40.5566 32.7598L41.6201 31.7019L29.6104 19.6277L28.5469 20.6855ZM40.5566 32.7598L39.2322 32.0556C38.6062 33.2331 38.251 34.5779 38.251 36.002H39.751H41.251C41.251 35.0816 41.4797 34.219 41.8811 33.4639L40.5566 32.7598ZM39.751 36.002L38.251 36.002C38.2511 40.6265 41.9822 44.3896 46.6016 44.3896V42.8896V41.3896C43.6544 41.3896 41.251 38.985 41.251 36.0019L39.751 36.002ZM46.6016 42.8896L46.6016 44.3896C51.2209 44.3896 54.952 40.6265 54.9521 36.002L53.4521 36.002L51.9521 36.0019C51.9521 38.985 49.5487 41.3896 46.6015 41.3896L46.6016 42.8896ZM53.4521 36.002H54.9521C54.9521 31.3773 51.2209 27.6143 46.6016 27.6143L46.6016 29.1143L46.6015 30.6143C49.5488 30.6143 51.9521 33.0189 51.9521 36.002H53.4521ZM46.6016 29.1143V27.6143C45.1813 27.6143 43.8403 27.9719 42.6669 28.6026L43.377 29.9238L44.0871 31.2451C44.8356 30.8428 45.6901 30.6143 46.6016 30.6143V29.1143ZM43.377 29.9238L44.4405 28.8661L33.0284 17.3915L31.9648 18.4492L30.9013 19.507L42.3134 30.9816L43.377 29.9238ZM31.9648 18.4492H33.4648V5.5H31.9648H30.4648V18.4492H31.9648ZM31.9648 5.5V7H34.3027V5.5V4H31.9648V5.5ZM34.3027 5.5H35.8027V1.5H34.3027H32.8027V5.5H34.3027ZM34.3027 1.5V3H42.5312V1.5V0H34.3027V1.5ZM42.5312 1.5H41.0312V5.5H42.5312H44.0312V1.5H42.5312ZM42.5312 5.5V7H50.7607V5.5V4H42.5312V5.5ZM50.7607 5.5H52.2607V1.5H50.7607H49.2607V5.5H50.7607ZM50.7607 1.5V3H58.9902V1.5V0H50.7607V1.5ZM58.9902 1.5H57.4902V5.5H58.9902H60.4902V1.5H58.9902ZM58.9902 5.5V7H67.2197V5.5V4H58.9902V5.5ZM67.2197 5.5H68.7197V1.5H67.2197H65.7197V5.5H67.2197ZM67.2197 1.5V3H75.4482V1.5V0H67.2197V1.5ZM75.4482 1.5H73.9482V5.5H75.4482H76.9482V1.5H75.4482ZM75.4482 5.5V7H83.6777V5.5V4H75.4482V5.5ZM83.6777 5.5H85.1777V1.5H83.6777H82.1777V5.5H83.6777ZM83.6777 1.5V3H91.9072V1.5V0H83.6777V1.5ZM91.9072 1.5H90.4072V5.5H91.9072H93.4072V1.5H91.9072ZM91.9072 5.5V7H93.5752V5.5V4H91.9072V5.5ZM93.5752 5.5H92.0752V28.417H93.5752H95.0752V5.5H93.5752ZM93.5752 28.417L93.1452 26.98C89.6942 28.0126 87.1818 31.2208 87.1816 35.0175L88.6816 35.0176L90.1816 35.0176C90.1817 32.5745 91.7971 30.5148 94.0052 29.854L93.5752 28.417ZM88.6816 35.0176H87.1816C87.1816 39.6423 90.9129 43.4053 95.5322 43.4053V41.9053V40.4053C92.585 40.4053 90.1816 38.0007 90.1816 35.0176H88.6816ZM95.5322 41.9053L95.5323 43.4053C100.151 43.4052 103.883 39.6422 103.883 35.0176H102.383H100.883C100.883 38.0006 98.4794 40.4052 95.5322 40.4053L95.5322 41.9053ZM102.383 35.0176L103.883 35.0175C103.883 31.2595 101.421 28.077 98.0243 27.0112L97.5752 28.4424L97.1261 29.8736C99.2999 30.5557 100.883 32.5992 100.883 35.0176L102.383 35.0176ZM97.5752 28.4424H99.0752V5.5H97.5752H96.0752V28.4424H97.5752ZM97.5752 5.5V7H100.137V5.5V4H97.5752V5.5ZM100.137 5.5H101.637V1.5H100.137H98.6367V5.5H100.137ZM100.137 1.5V3H108.365V1.5V0H100.137V1.5ZM108.365 1.5H106.865V5.5H108.365H109.865V1.5H108.365ZM108.365 5.5V7H116.595V5.5V4H108.365V5.5ZM116.595 5.5H118.095V1.5H116.595H115.095V5.5H116.595ZM116.595 1.5V3H124.824V1.5V0H116.595V1.5ZM124.824 1.5H123.324V5.5H124.824H126.324V1.5H124.824ZM124.824 5.5V7H133.054V5.5V4H124.824V5.5ZM133.054 5.5H134.554V1.5H133.054H131.554V5.5H133.054ZM133.054 1.5V3H141.282V1.5V0H133.054V1.5ZM141.282 1.5H139.782V5.5H141.282H142.782V1.5H141.282ZM141.282 5.5V7H149.512V5.5V4H141.282V5.5ZM149.512 5.5H151.012V1.5H149.512H148.012V5.5H149.512ZM149.512 1.5V3H157.741V1.5V0H149.512V1.5ZM157.741 1.5H156.241V5.5H157.741H159.241V1.5H157.741ZM157.741 5.5V7H159.1V5.5V4H157.741V5.5ZM159.1 5.5H157.6V20.417H159.1H160.6V5.5H159.1ZM159.1 20.417L158.036 19.3592L148.213 29.2352L149.276 30.293L150.34 31.3508L160.163 21.4748L159.1 20.417ZM149.276 30.293L150.12 29.0528C148.785 28.1444 147.172 27.6143 145.441 27.6143V29.1143V30.6143C146.552 30.6143 147.579 30.9526 148.433 31.5331L149.276 30.293ZM145.441 29.1143L145.441 27.6143C140.822 27.6143 137.091 31.3773 137.091 36.002H138.591H140.091C140.091 33.0189 142.494 30.6143 145.441 30.6143L145.441 29.1143ZM138.591 36.002L137.091 36.002C137.091 40.6265 140.822 44.3896 145.441 44.3896L145.441 42.8896L145.441 41.3896C142.494 41.3896 140.091 38.985 140.091 36.0019L138.591 36.002ZM145.441 42.8896V44.3896C150.061 44.3896 153.792 40.6265 153.792 36.002L152.292 36.002L150.792 36.0019C150.792 38.985 148.389 41.3896 145.441 41.3896V42.8896ZM152.292 36.002H153.792C153.792 34.8967 153.576 33.8406 153.189 32.8741L151.797 33.4316L150.404 33.9892C150.653 34.6113 150.792 35.2896 150.792 36.002H152.292ZM151.797 33.4316L152.86 34.4895L163.581 23.7111L162.518 22.6533L161.454 21.5955L150.733 32.3738L151.797 33.4316ZM162.518 22.6533L163.581 23.7113L164.163 23.1264L163.1 22.0684L162.036 21.0104L161.454 21.5953L162.518 22.6533ZM163.1 22.0684H164.6V5.5H163.1H161.6V22.0684H163.1ZM163.1 5.5V7H165.971V5.5V4H163.1V5.5ZM165.971 5.5H167.471V1.5H165.971H164.471V5.5H165.971ZM165.971 1.5V3H174.2V1.5V0H165.971V1.5ZM174.2 1.5H172.7V5.5H174.2H175.7V1.5H174.2ZM174.2 5.5V7H182.429V5.5V4H174.2V5.5ZM182.429 5.5H183.929V1.5H182.429H180.929V5.5H182.429ZM182.429 1.5V3H190.544V1.5V0H182.429V1.5ZM190.544 1.5H189.044V9.61426H190.544H192.044V1.5H190.544ZM190.544 9.61426V8.11426H186.543V9.61426V11.1143H190.544V9.61426ZM186.543 9.61426H185.043V17.8438H186.543H188.043V9.61426H186.543ZM186.543 17.8438V19.3438H190.544V17.8438V16.3438H186.543V17.8438ZM190.544 17.8438H189.044V26.0732H190.544H192.044V17.8438H190.544ZM190.544 26.0732V24.5732H186.543V26.0732V27.5732H190.544V26.0732ZM186.543 26.0732H185.043V29.082H186.543H188.043V26.0732H186.543ZM186.543 29.082V27.582H171.033V29.082V30.582H186.543V29.082ZM171.033 29.082L169.97 28.024L169.383 28.6139L170.446 29.6719L171.51 30.7299L172.096 30.14L171.033 29.082ZM170.446 29.6719L169.383 28.614L157.698 40.3611L158.762 41.4189L159.825 42.4768L171.51 30.7297L170.446 29.6719ZM158.762 41.4189L159.324 40.0285C158.361 39.6385 157.308 39.4219 156.206 39.4219V40.9219V42.4219C156.912 42.4219 157.583 42.5601 158.199 42.8094L158.762 41.4189ZM156.206 40.9219L156.206 39.4219C151.587 39.422 147.857 43.1842 147.856 47.8085L149.356 47.8086L150.856 47.8087C150.857 44.8257 153.259 42.422 156.206 42.4219L156.206 40.9219ZM149.356 47.8086H147.856C147.856 52.433 151.587 56.1962 156.206 56.1963L156.206 54.6963L156.206 53.1963C153.259 53.1962 150.856 50.7919 150.856 47.8086H149.356ZM156.206 54.6963V56.1963C160.825 56.1963 164.557 52.4333 164.557 47.8086H163.057H161.557C161.557 50.7917 159.153 53.1963 156.206 53.1963V54.6963ZM163.057 47.8086L164.557 47.8085C164.557 46.0725 164.029 44.4555 163.127 43.1154L161.883 43.9531L160.639 44.7908C161.218 45.6511 161.557 46.6876 161.557 47.8087L163.057 47.8086ZM161.883 43.9531L162.946 45.011L173.76 34.1399L172.696 33.082L171.633 32.0242L160.819 42.8953L161.883 43.9531ZM172.696 33.082V34.582H186.543V33.082V31.582H172.696V33.082ZM186.543 33.082H185.043V34.3027H186.543H188.043V33.082H186.543ZM186.543 34.3027V35.8027H190.544V34.3027V32.8027H186.543V34.3027ZM190.544 34.3027H189.044V42.5322H190.544H192.044V34.3027H190.544ZM190.544 42.5322V41.0322H186.543V42.5322V44.0322H190.544V42.5322ZM186.543 42.5322H185.043V50.7607H186.543H188.043V42.5322H186.543ZM186.543 50.7607V52.2607H190.544V50.7607V49.2607H186.543V50.7607ZM190.544 50.7607H189.044V58.9902H190.544H192.044V50.7607H190.544ZM190.544 58.9902V57.4902H186.543V58.9902V60.4902H190.544V58.9902ZM186.543 58.9902H185.043V67.2197H186.543H188.043V58.9902H186.543ZM186.543 67.2197V68.7197H190.544V67.2197V65.7197H186.543V67.2197ZM190.544 67.2197H189.044V75.4492H190.544H192.044V67.2197H190.544ZM190.544 75.4492V73.9492H186.543V75.4492V76.9492H190.544V75.4492ZM186.543 75.4492H185.043V83.6777H186.543H188.043V75.4492H186.543ZM186.543 83.6777V85.1777H190.544V83.6777V82.1777H186.543V83.6777ZM190.544 83.6777H189.044V91.9072H190.544H192.044V83.6777H190.544ZM190.544 91.9072V90.4072H186.543V91.9072V93.4072H190.544V91.9072ZM186.543 91.9072H185.043V96.0215H186.543H188.043V91.9072H186.543ZM186.543 96.0215V94.5215H162.007V96.0215V97.5215H186.543V96.0215ZM162.007 96.0215L163.492 95.8101C162.914 91.7505 159.442 88.6182 155.228 88.6182V90.1182V91.6182C157.914 91.6182 160.149 93.6176 160.522 96.2329L162.007 96.0215ZM155.228 90.1182L155.227 88.6182C150.608 88.6183 146.878 92.3815 146.878 97.0059H148.378H149.878C149.878 94.0226 152.281 91.6182 155.228 91.6182L155.228 90.1182ZM148.378 97.0059H146.878C146.878 101.63 150.608 105.393 155.227 105.394L155.228 103.894L155.228 102.394C152.281 102.393 149.878 99.9891 149.878 97.0059H148.378ZM155.228 103.894V105.394C158.535 105.394 161.385 103.463 162.737 100.676L161.388 100.021L160.038 99.3667C159.166 101.165 157.335 102.394 155.228 102.394V103.894ZM161.388 100.021V101.521H186.543V100.021V98.5215H161.388V100.021ZM186.543 100.021H185.043V100.137H186.543H188.043V100.021H186.543ZM186.543 100.137V101.637H190.544V100.137V98.6367H186.543V100.137ZM190.544 100.137H189.044V108.366H190.544H192.044V100.137H190.544ZM190.544 108.366V106.866H186.543V108.366V109.866H190.544V108.366ZM186.543 108.366H185.043V116.596H186.543H188.043V108.366H186.543ZM186.543 116.596V118.096H190.544V116.596V115.096H186.543V116.596ZM190.544 116.596H189.044V124.824H190.544H192.044V116.596H190.544ZM190.544 124.824V123.324H186.543V124.824V126.324H190.544V124.824ZM186.543 124.824H185.043V133.054H186.543H188.043V124.824H186.543ZM186.543 133.054V134.554H190.544V133.054V131.554H186.543V133.054ZM190.544 133.054H189.044V141.283H190.544H192.044V133.054H190.544ZM190.544 141.283V139.783H186.543V141.283V142.783H190.544V141.283ZM186.543 141.283H185.043V149.513H186.543H188.043V141.283H186.543ZM186.543 149.513V151.013H190.544V149.513V148.013H186.543V149.513ZM190.544 149.513H189.044V157.742H190.544H192.044V149.513H190.544ZM190.544 157.742V156.242H186.543V157.742V159.242H190.544V157.742ZM186.543 157.742H185.043V157.979H186.543H188.043V157.742H186.543ZM186.543 157.979V156.479H169.761V157.979V159.479H186.543V157.979ZM169.761 157.979L170.824 156.921L161.547 147.593L160.483 148.65L159.42 149.708L168.697 159.036L169.761 157.979ZM160.483 148.65L161.636 149.61C162.847 148.155 163.578 146.278 163.578 144.234H162.078H160.578C160.578 145.552 160.109 146.755 159.33 147.691L160.483 148.65ZM162.078 144.234L163.578 144.234C163.578 139.61 159.847 135.848 155.228 135.848V137.348V138.848C158.175 138.848 160.578 141.252 160.578 144.234L162.078 144.234ZM155.228 137.348L155.227 135.848C150.608 135.848 146.878 139.61 146.878 144.234L148.378 144.234L149.878 144.234C149.878 141.252 152.281 138.848 155.228 138.848L155.228 137.348ZM148.378 144.234H146.878C146.878 148.859 150.608 152.622 155.227 152.622L155.228 151.122L155.228 149.622C152.281 149.622 149.878 147.218 149.878 144.234H148.378ZM155.228 151.122V152.622C155.999 152.622 156.746 152.514 157.452 152.319L157.052 150.873L156.651 149.428C156.196 149.554 155.719 149.622 155.228 149.622V151.122ZM157.052 150.873L155.988 151.931L166.447 162.446L167.511 161.389L168.574 160.331L158.115 149.815L157.052 150.873ZM167.511 161.389L166.447 162.446L167.033 163.036L168.097 161.979L169.161 160.921L168.575 160.332L167.511 161.389ZM168.097 161.979V163.479H186.543V161.979V160.479H168.097V161.979ZM186.543 161.979H185.043V165.971H186.543H188.043V161.979H186.543ZM186.543 165.971V167.471H190.544V165.971V164.471H186.543V165.971ZM190.544 165.971H189.044V174.2H190.544H192.044V165.971H190.544ZM190.544 174.2V172.7H186.543V174.2V175.7H190.544V174.2ZM186.543 174.2H185.043V182.43H186.543H188.043V174.2H186.543ZM186.543 182.43V183.93H190.544V182.43V180.93H186.543V182.43ZM190.544 182.43H189.044V190.544H190.544H192.044V182.43H190.544ZM190.544 190.544V189.044H182.429V190.544V192.044H190.544V190.544ZM182.429 190.544H183.929V186.544H182.429H180.929V190.544H182.429ZM182.429 186.544V185.044H174.2V186.544V188.044H182.429V186.544ZM174.2 186.544H172.7V190.544H174.2H175.7V186.544H174.2ZM174.2 190.544V189.044H165.971V190.544V192.044H174.2V190.544ZM165.971 190.544H167.471V186.544H165.971H164.471V190.544H165.971ZM165.971 186.544V185.044H163.1V186.544V188.044H165.971V186.544ZM163.1 186.544H164.6V169.976H163.1H161.6V186.544H163.1ZM163.1 169.976L164.163 168.918L163.581 168.333L162.518 169.391L161.454 170.449L162.036 171.034L163.1 169.976ZM162.518 169.391L163.581 168.333L147.923 152.59L146.859 153.647L145.796 154.705L161.454 170.448L162.518 169.391ZM146.859 153.647L145.801 152.584L144.383 153.995L145.441 155.059L146.499 156.122L147.917 154.711L146.859 153.647ZM145.441 155.059L144.384 153.995L142.966 155.405L144.023 156.469L145.081 157.532L146.499 156.122L145.441 155.059ZM144.023 156.469L142.96 157.527L158.036 172.685L159.1 171.627L160.163 170.569L145.087 155.411L144.023 156.469ZM159.1 171.627H157.6V186.544H159.1H160.6V171.627H159.1ZM159.1 186.544V185.044H157.741V186.544V188.044H159.1V186.544ZM157.741 186.544H156.241V190.544H157.741H159.241V186.544H157.741ZM157.741 190.544V189.044H149.512V190.544V192.044H157.741V190.544ZM149.512 190.544H151.012V186.544H149.512H148.012V190.544H149.512ZM149.512 186.544V185.044H141.283V186.544V188.044H149.512V186.544ZM141.283 186.544H139.783V190.544H141.283H142.783V186.544H141.283ZM141.283 190.544V189.044H133.054V190.544V192.044H141.283V190.544ZM133.054 190.544H134.554V186.544H133.054H131.554V190.544H133.054ZM133.054 186.544V185.044H124.824V186.544V188.044H133.054V186.544ZM124.824 186.544H123.324V190.544H124.824H126.324V186.544H124.824ZM124.824 190.544V189.044H116.595V190.544V192.044H124.824V190.544ZM116.595 190.544H118.095V186.544H116.595H115.095V190.544H116.595ZM116.595 186.544V185.044H108.365V186.544V188.044H116.595V186.544ZM108.365 186.544H106.865V190.544H108.365H109.865V186.544H108.365ZM108.365 190.544V189.044H100.137V190.544V192.044H108.365V190.544ZM100.137 190.544H101.637V186.544H100.137H98.6367V190.544H100.137ZM100.137 186.544V185.044H97.5752V186.544V188.044H100.137V186.544ZM97.5752 186.544H99.0752V164.585H97.5752H96.0752V186.544H97.5752ZM97.5752 164.585L98.0243 166.016C101.421 164.95 103.883 161.768 103.883 158.01H102.383H100.883C100.883 160.428 99.3 162.472 97.1261 163.154L97.5752 164.585ZM102.383 158.01L103.883 158.01C103.883 153.385 100.151 149.622 95.5323 149.622L95.5322 151.122L95.5322 152.622C98.4794 152.622 100.883 155.027 100.883 158.01L102.383 158.01ZM95.5322 151.122V149.622C90.9129 149.622 87.1817 153.385 87.1816 158.01L88.6816 158.01L90.1816 158.01C90.1817 155.027 92.585 152.622 95.5322 152.622V151.122ZM88.6816 158.01H87.1816C87.1816 161.807 89.6943 165.015 93.1451 166.047L93.5752 164.61L94.0052 163.173C91.797 162.512 90.1816 160.453 90.1816 158.01H88.6816ZM93.5752 164.61H92.0752V186.544H93.5752H95.0752V164.61H93.5752ZM93.5752 186.544V185.044H91.9072V186.544V188.044H93.5752V186.544ZM91.9072 186.544H90.4072V190.544H91.9072H93.4072V186.544H91.9072ZM91.9072 190.544V189.044H83.6777V190.544V192.044H91.9072V190.544ZM83.6777 190.544H85.1777V186.544H83.6777H82.1777V190.544H83.6777ZM83.6777 186.544V185.044H75.4482V186.544V188.044H83.6777V186.544ZM75.4482 186.544H73.9482V190.544H75.4482H76.9482V186.544H75.4482ZM75.4482 190.544V189.044H67.2197V190.544V192.044H75.4482V190.544ZM67.2197 190.544H68.7197V186.544H67.2197H65.7197V190.544H67.2197ZM67.2197 186.544V185.044H58.9902V186.544V188.044H67.2197V186.544ZM58.9902 186.544H57.4902V190.544H58.9902H60.4902V186.544H58.9902ZM58.9902 190.544V189.044H50.7607V190.544V192.044H58.9902V190.544ZM50.7607 190.544H52.2607V186.544H50.7607H49.2607V190.544H50.7607ZM50.7607 186.544V185.044H42.5312V186.544V188.044H50.7607V186.544ZM42.5312 186.544H41.0312V190.544H42.5312H44.0312V186.544H42.5312ZM42.5312 190.544V189.044H34.3027V190.544V192.044H42.5312V190.544ZM34.3027 190.544H35.8027V186.544H34.3027H32.8027V190.544H34.3027ZM34.3027 186.544V185.044H32.9434V186.544V188.044H34.3027V186.544ZM32.9434 186.544H34.4434V171.627H32.9434H31.4434V186.544H32.9434ZM32.9434 171.627L34.007 172.685L42.7648 163.878L41.7012 162.82L40.6376 161.763L31.8798 170.569L32.9434 171.627ZM41.7012 162.82L40.6251 163.865C42.1383 165.423 44.2564 166.397 46.6016 166.397V164.897V163.397C45.1044 163.397 43.7519 162.779 42.7772 161.775L41.7012 162.82ZM46.6016 164.897L46.6016 166.397C51.2209 166.397 54.9521 162.634 54.9521 158.01H53.4521H51.9521C51.9521 160.993 49.5488 163.397 46.6015 163.397L46.6016 164.897ZM53.4521 158.01L54.9521 158.01C54.9521 153.385 51.2209 149.622 46.6016 149.622L46.6016 151.122L46.6015 152.622C49.5487 152.622 51.9521 155.027 51.9521 158.01L53.4521 158.01ZM46.6016 151.122V149.622C41.9822 149.622 38.2511 153.385 38.251 158.01L39.751 158.01L41.251 158.01C41.251 155.027 43.6544 152.622 46.6016 152.622V151.122ZM39.751 158.01H38.251C38.251 158.432 38.2822 158.847 38.3424 159.253L39.8262 159.033L41.31 158.813C41.2712 158.552 41.251 158.283 41.251 158.01H39.751ZM39.8262 159.033L38.7626 157.975L28.4618 168.333L29.5254 169.391L30.589 170.448L40.8897 160.091L39.8262 159.033ZM29.5254 169.391L28.4621 168.333L27.88 168.918L28.9434 169.976L30.0067 171.034L30.5887 170.449L29.5254 169.391ZM28.9434 169.976H27.4434V186.544H28.9434H30.4434V169.976H28.9434ZM28.9434 186.544V185.044H26.0732V186.544V188.044H28.9434V186.544ZM26.0732 186.544H24.5732V190.544H26.0732H27.5732V186.544H26.0732ZM26.0732 190.544V189.044H17.8438V190.544V192.044H26.0732V190.544ZM17.8438 190.544H19.3438V186.544H17.8438H16.3438V190.544H17.8438ZM17.8438 186.544V185.044H9.61426V186.544V188.044H17.8438V186.544ZM9.61426 186.544H8.11426V190.544H9.61426H11.1143V186.544H9.61426ZM9.61426 190.544V189.044H1.5V190.544V192.044H9.61426V190.544ZM1.5 190.544H3V182.43H1.5H0V190.544H1.5ZM1.5 182.43V183.93H5.5V182.43V180.93H1.5V182.43ZM5.5 182.43H7V174.2H5.5H4V182.43H5.5ZM5.5 174.2V172.7H1.5V174.2V175.7H5.5V174.2ZM1.5 174.2H3V165.971H1.5H0V174.2H1.5ZM1.5 165.971V167.471H5.5V165.971V164.471H1.5V165.971ZM5.5 165.971H7V162.962H5.5H4V165.971H5.5ZM5.5 162.962V164.462H21.0107V162.962V161.462H5.5V162.962ZM21.0107 162.962L22.0749 164.019L22.6609 163.429L21.5967 162.372L20.5325 161.315L19.9466 161.905L21.0107 162.962ZM21.5967 162.372L22.6602 163.43L34.0967 151.931L33.0332 150.873L31.9697 149.815L20.5331 161.314L21.5967 162.372ZM33.0332 150.873L32.6324 152.318C33.34 152.515 34.0865 152.622 34.8584 152.622V151.122V149.622C34.3659 149.622 33.8888 149.554 33.434 149.428L33.0332 150.873ZM34.8584 151.122L34.8584 152.622C39.4776 152.622 43.209 148.859 43.209 144.234H41.709H40.209C40.209 147.217 37.8056 149.622 34.8584 149.622L34.8584 151.122ZM41.709 144.234L43.209 144.234C43.2087 139.61 39.4773 135.848 34.8584 135.848L34.8584 137.348L34.8584 138.848C37.8056 138.848 40.2088 141.252 40.209 144.234L41.709 144.234ZM34.8584 137.348V135.848C30.2394 135.848 26.5081 139.61 26.5078 144.234L28.0078 144.234L29.5078 144.234C29.508 141.252 31.9111 138.848 34.8584 138.848V137.348ZM28.0078 144.234H26.5078C26.5078 146.278 27.2378 148.154 28.4484 149.61L29.6016 148.65L30.7547 147.691C29.9763 146.755 29.5078 145.552 29.5078 144.234H28.0078ZM29.6016 148.65L28.538 147.593L18.2831 157.904L19.3467 158.962L20.4103 160.02L30.6651 149.708L29.6016 148.65ZM19.3467 158.962V157.462H5.5V158.962V160.462H19.3467V158.962ZM5.5 158.962H7V157.742H5.5H4V158.962H5.5ZM5.5 157.742V156.242H1.5V157.742V159.242H5.5V157.742ZM1.5 157.742H3V149.513H1.5H0V157.742H1.5ZM1.5 149.513V151.013H5.5V149.513V148.013H1.5V149.513ZM5.5 149.513H7V141.283H5.5H4V149.513H5.5ZM5.5 141.283V139.783H1.5V141.283V142.783H5.5V141.283ZM1.5 141.283H3V133.054H1.5H0V141.283H1.5ZM1.5 133.054V134.554H5.5V133.054V131.554H1.5V133.054ZM5.5 133.054H7V124.824H5.5H4V133.054H5.5ZM5.5 124.824V123.324H1.5V124.824V126.324H5.5V124.824ZM1.5 124.824H3V116.596H1.5H0V124.824H1.5ZM1.5 116.596V118.096H5.5V116.596V115.096H1.5V116.596ZM5.5 116.596H7V108.366H5.5H4V116.596H5.5ZM5.5 108.366V106.866H1.5V108.366V109.866H5.5V108.366ZM1.5 108.366H3V100.137H1.5H0V108.366H1.5ZM1.5 100.137V101.637H5.5V100.137V98.6367H1.5V100.137ZM5.5 100.137H7V100.021H5.5H4V100.137H5.5ZM5.5 100.021V101.521H29.6768V100.021V98.5215H5.5V100.021ZM29.6768 100.021L28.3272 100.676C29.6791 103.463 32.5297 105.394 35.8369 105.394V103.894V102.394C33.729 102.394 31.8988 101.165 31.0263 99.3667L29.6768 100.021ZM35.8369 103.894L35.8369 105.394C40.4562 105.394 44.1875 101.631 44.1875 97.0059H42.6875H41.1875C41.1875 99.9889 38.7842 102.394 35.8369 102.394L35.8369 103.894ZM42.6875 97.0059H44.1875C44.1875 92.3812 40.4562 88.6182 35.8369 88.6182L35.8369 90.1182L35.8369 91.6182C38.7842 91.6182 41.1875 94.0228 41.1875 97.0059H42.6875ZM35.8369 90.1182V88.6182C31.6221 88.6182 28.1505 91.7505 27.5726 95.8101L29.0576 96.0215L30.5426 96.2329C30.915 93.6176 33.15 91.6182 35.8369 91.6182V90.1182ZM29.0576 96.0215V94.5215H5.5V96.0215V97.5215H29.0576V96.0215ZM5.5 96.0215H7V91.9072H5.5H4V96.0215H5.5ZM5.5 91.9072V90.4072H1.5V91.9072V93.4072H5.5V91.9072ZM1.5 91.9072H3V83.6777H1.5H0V91.9072H1.5ZM1.5 83.6777V85.1777H5.5V83.6777V82.1777H1.5V83.6777ZM5.5 83.6777H7V75.4492H5.5H4V83.6777H5.5ZM5.5 75.4492V73.9492H1.5V75.4492V76.9492H5.5V75.4492ZM1.5 75.4492H3V67.2197H1.5H0V75.4492H1.5ZM1.5 67.2197V68.7197H5.5V67.2197V65.7197H1.5V67.2197ZM5.5 67.2197H7V58.9902H5.5H4V67.2197H5.5ZM5.5 58.9902V57.4902H1.5V58.9902V60.4902H5.5V58.9902ZM1.5 58.9902H3V50.7607H1.5H0V58.9902H1.5ZM1.5 50.7607V52.2607H5.5V50.7607V49.2607H1.5V50.7607ZM5.5 50.7607H7V42.5322H5.5H4V50.7607H5.5ZM5.5 42.5322V41.0322H1.5V42.5322V44.0322H5.5V42.5322ZM1.5 42.5322H3V34.3027H1.5H0V42.5322H1.5ZM1.5 34.3027V35.8027H5.5V34.3027V32.8027H1.5V34.3027ZM5.5 34.3027H7V32.0977H5.5H4V34.3027H5.5ZM5.5 32.0977V33.5977H19.3467V32.0977V30.5977H5.5V32.0977ZM19.3467 32.0977L18.2832 33.1555L28.1172 43.0422L29.1807 41.9844L30.2442 40.9266L20.4102 31.0398L19.3467 32.0977ZM29.1807 41.9844L27.9364 41.1466C27.0335 42.4876 26.5079 44.1055 26.5078 45.8407L28.0078 45.8408L29.5078 45.8409C29.5079 44.7188 29.8462 43.6816 30.4249 42.8221L29.1807 41.9844ZM28.0078 45.8408H26.5078C26.5078 50.4655 30.239 54.2285 34.8584 54.2285V52.7285V51.2285C31.9111 51.2285 29.5078 48.8239 29.5078 45.8408H28.0078ZM34.8584 52.7285L34.8584 54.2285C39.4776 54.2284 43.209 50.4655 43.209 45.8408H41.709H40.209C40.209 48.8238 37.8056 51.2284 34.8584 51.2285L34.8584 52.7285ZM41.709 45.8408L43.209 45.8407C43.2087 41.2161 39.4773 37.4542 34.8584 37.4541L34.8584 38.9541L34.8584 40.4541C37.8057 40.4542 40.2088 42.8582 40.209 45.8409L41.709 45.8408ZM34.8584 38.9541V37.4541C33.7567 37.4541 32.7033 37.6704 31.7389 38.0608L32.3018 39.4512L32.8646 40.8416C33.4804 40.5923 34.1522 40.4541 34.8584 40.4541V38.9541ZM32.3018 39.4512L33.3653 38.3934L22.6602 27.6297L21.5967 28.6875L20.5331 29.7453L31.2382 40.5089L32.3018 39.4512ZM21.5967 28.6875L22.6609 27.6304L22.0749 27.0405L21.0107 28.0977L19.9466 29.1548L20.5325 29.7446L21.5967 28.6875ZM21.0107 28.0977V26.5977H5.5V28.0977V29.5977H21.0107V28.0977ZM5.5 28.0977H7V26.0732H5.5H4V28.0977H5.5ZM5.5 26.0732V24.5732H1.5V26.0732V27.5732H5.5V26.0732ZM1.5 26.0732H3V17.8438H1.5H0V26.0732H1.5ZM1.5 17.8438V19.3438H5.5V17.8438V16.3438H1.5V17.8438ZM5.5 17.8438H7V9.61426H5.5H4V17.8438H5.5ZM5.5 9.61426V8.11426H1.5V9.61426V11.1143H5.5V9.61426ZM1.5 9.61426H3V1.5H1.5H0V9.61426H1.5ZM1.5 1.5V3H9.61426V1.5V0H1.5V1.5ZM9.61426 1.5H8.11426V5.5H9.61426H11.1143V1.5H9.61426Z" fill="#4C4C4C"/>
<path d="M61.2542 139.114V134.794H56.8862V112.618H61.2542V108.25H74.7902V112.618H79.2062V121.738H74.3102V113.098H61.7342V134.314H74.3102V125.578H79.2062V134.794H74.7902V139.114H61.2542ZM85.0112 139.114V112.618H89.3792V108.25H102.915V112.618H107.331V126.058H102.915V130.426H89.8592V139.114H85.0112ZM89.8592 125.578H102.435V113.098H89.8592V125.578ZM117.504 139.114V134.794H113.136V108.25H117.984V134.314H130.56V108.25H135.456V134.794H131.04V139.114H117.504Z" fill="#4C4C4C"/>
</svg>
