<svg width="64" height="64" viewBox="0 0 64 64" fill="none" xmlns="http://www.w3.org/2000/svg">
<rect x="44" y="26" width="19" height="3" fill="#D9D9D9"/>
<rect x="44" y="36" width="19" height="3" fill="#D9D9D9"/>
<rect x="44" y="31" width="19" height="3" fill="#D9D9D9"/>
<rect x="38" width="19" height="3" transform="rotate(90 38 0)" fill="#D9D9D9"/>
<rect x="28" width="19" height="3" transform="rotate(90 28 0)" fill="#D9D9D9"/>
<rect x="33" width="19" height="3" transform="rotate(90 33 0)" fill="#D9D9D9"/>
<rect x="1" y="26" width="19" height="3" fill="#D9D9D9"/>
<rect x="1" y="36" width="19" height="3" fill="#D9D9D9"/>
<rect x="1" y="31" width="19" height="3" fill="#D9D9D9"/>
<path d="M31.8452 64L24 55L40 55L31.8452 64Z" fill="#F5F5F5"/>
<path d="M56 32.5C56 46.031 45.2548 57 32 57C18.7452 57 8 46.031 8 32.5C8 18.969 18.7452 8 32 8C45.2548 8 56 18.969 56 32.5Z" fill="#312AFF" stroke="white" stroke-width="3"/>
</svg>
