<svg width="64" height="64" viewBox="0 0 64 64" fill="none" xmlns="http://www.w3.org/2000/svg">
<path d="M3.875 1V2H7.625V1H11.375V2H15.125V1H18.875V2H22.625V1H26.375V2H30.125V1H33.875V2H37.625V1H41.375V2H45.125V1H48.875V2H52.625V1H56.375V2H60.125V1H63V3.875H62V7.625H63V11.375H62V15.125H63V18.875H62V22.625H63V26.375H62V30.125H63V33.875H62V37.625H63V41.375H62V45.125H63V48.875H62V52.625H63V56.375H62V60.125H63V63H60.125V62H56.375V63H52.625V62H48.875V63H45.125V62H41.375V63H37.625V62H33.875V63H30.125V62H26.375V63H22.625V62H18.875V63H15.125V62H11.375V63H7.625V62H3.875V63H1V60.125H2V56.375H1V52.625H2V48.875H1V45.125H2V41.375H1V37.625H2V33.875H1V30.125H2V26.375H1V22.625H2V18.875H1V15.125H2V11.375H1V7.625H2V3.875H1V1H3.875Z" stroke="#FFE684" stroke-width="2" stroke-dasharray="4 4"/>
<rect x="2" y="2" width="60" height="60" fill="#895A10"/>
</svg>
