<svg width="64" height="64" viewBox="0 0 64 64" fill="none" xmlns="http://www.w3.org/2000/svg">
<path d="M32.2709 1.2476e-06L46 16L18 16L32.2709 1.2476e-06Z" fill="#F5F5F5"/>
<path d="M31.7291 64L18 47L46 47L31.7291 64Z" fill="#F5F5F5"/>
<rect x="21.125" y="40.4375" width="17.2188" height="2.71875" transform="rotate(180 21.125 40.4375)" fill="#D9D9D9"/>
<rect x="21.125" y="31.375" width="17.2188" height="2.71875" transform="rotate(180 21.125 31.375)" fill="#D9D9D9"/>
<rect x="21.125" y="35.9062" width="17.2188" height="2.71875" transform="rotate(180 21.125 35.9062)" fill="#D9D9D9"/>
<path d="M32.1403 6L39.25 14.1562L24.75 14.1562L32.1403 6Z" fill="#F5F5F5"/>
<path d="M32.1403 6L39.25 14.1562L24.75 14.1562L32.1403 6Z" fill="#F5F5F5"/>
<path d="M10 32C10 19.8497 19.8497 10 32 10C44.1503 10 54 19.8497 54 32C54 44.1503 44.1503 54 32 54C19.8497 54 10 44.1503 10 32Z" fill="#312AFF" stroke="white" stroke-width="3"/>
</svg>
