<svg width="64" height="64" viewBox="0 0 64 64" fill="none" xmlns="http://www.w3.org/2000/svg">
<path d="M32.2709 1.2476e-06L46 17L18 17L32.2709 1.2476e-06Z" fill="#F5F5F5"/>
<rect x="60.2188" y="31.375" width="17.2188" height="2.71875" transform="rotate(180 60.2188 31.375)" fill="#D9D9D9"/>
<path d="M32.1403 6L39.25 14.1562L24.75 14.1562L32.1403 6Z" fill="#F5F5F5"/>
<path d="M32.1403 6L39.25 14.1562L24.75 14.1562L32.1403 6Z" fill="#F5F5F5"/>
<path d="M10 33C10 20.8497 19.8497 11 32 11C44.1503 11 54 20.8497 54 33C54 45.1503 44.1503 55 32 55C19.8497 55 10 45.1503 10 33Z" fill="#312AFF" stroke="white" stroke-width="3"/>
</svg>
