<svg width="64" height="64" viewBox="0 0 64 64" fill="none" xmlns="http://www.w3.org/2000/svg">
<path d="M32.2709 1.2476e-06L46 17L18 17L32.2709 1.2476e-06Z" fill="#F5F5F5"/>
<path d="M64 33.2709L47 47L47 19L64 33.2709Z" fill="#F5F5F5"/>
<rect x="26" y="61.2188" width="17.2188" height="2.71875" transform="rotate(-90 26 61.2188)" fill="#D9D9D9"/>
<rect x="35.0625" y="61.2188" width="17.2188" height="2.71875" transform="rotate(-90 35.0625 61.2188)" fill="#D9D9D9"/>
<rect x="30.5312" y="61.2188" width="17.2188" height="2.71875" transform="rotate(-90 30.5312 61.2188)" fill="#D9D9D9"/>
<path d="M32.1403 6L39.25 14.1562L24.75 14.1562L32.1403 6Z" fill="#F5F5F5"/>
<path d="M32.1403 6L39.25 14.1562L24.75 14.1562L32.1403 6Z" fill="#F5F5F5"/>
<path d="M10 33C10 20.8497 19.8497 11 32 11C44.1503 11 54 20.8497 54 33C54 45.1503 44.1503 55 32 55C19.8497 55 10 45.1503 10 33Z" fill="#312AFF" stroke="white" stroke-width="3"/>
</svg>
