<svg width="64" height="64" viewBox="0 0 64 64" fill="none" xmlns="http://www.w3.org/2000/svg">
<path d="M32.2709 1.2476e-06L46 16L18 16L32.2709 1.2476e-06Z" fill="#F5F5F5"/>
<path d="M64 32.2709L47 46L47 18L64 32.2709Z" fill="#F5F5F5"/>
<path d="M6.23799e-07 32.2709L17 46L17 18L6.23799e-07 32.2709Z" fill="#F5F5F5"/>
<path d="M31.7291 64L18 47L46 47L31.7291 64Z" fill="#F5F5F5"/>
<path d="M32.1403 6L39.25 14.1562L24.75 14.1562L32.1403 6Z" fill="#F5F5F5"/>
<path d="M32.1403 6L39.25 14.1562L24.75 14.1562L32.1403 6Z" fill="#F5F5F5"/>
<path d="M10 32C10 19.8497 19.8497 10 32 10C44.1503 10 54 19.8497 54 32C54 44.1503 44.1503 54 32 54C19.8497 54 10 44.1503 10 32Z" fill="#312AFF" stroke="white" stroke-width="3"/>
</svg>
